BerkeleyMono-Regular.sfdir
StartChar: exclam
Encoding: 33 33 68
Width: 600
GlyphClass: 1
Flags: W
LayerCount: 2
Fore
SplineSet
258 453 m 1,0,-1
 258 716 l 1,1,-1
 342 716 l 1,2,-1
 342 453 l 1,3,-1
 328 243 l 1,4,-1
 272 243 l 1,5,-1
 258 453 l 1,0,-1
232 138 m 1,6,-1
 368 138 l 1,7,-1
 368 0 l 1,8,-1
 232 0 l 1,9,-1
 232 138 l 1,6,-1
EndSplineSet
Validated: 1
EndChar
StartChar: quotedbl
Encoding: 34 34 82
Width: 600
GlyphClass: 1
Flags: W
LayerCount: 2
Fore
SplineSet
151 655 m 1,0,-1
 151 726 l 1,1,-1
 247 726 l 1,2,-1
 247 655 l 1,3,-1
 229 405 l 1,4,-1
 169 405 l 1,5,-1
 151 655 l 1,0,-1
351 726 m 1,6,-1
 447 726 l 1,7,-1
 447 655 l 1,8,-1
 429 405 l 1,9,-1
 369 405 l 1,10,-1
 351 655 l 1,11,-1
 351 726 l 1,6,-1
EndSplineSet
Validated: 1
EndChar
StartChar: numbersign
Encoding: 35 35 71
Width: 600
GlyphClass: 1
Flags: W
LayerCount: 2
Fore
SplineSet
349 212 m 1,0,-1
 303 309 l 1,1,-1
 295 309 l 1,2,-1
 249 211 l 1,3,-1
 207 153 l 1,4,-1
 135 205 l 1,5,-1
 177 263 l 1,6,-1
 259 337 l 1,7,-1
 257 343 l 1,8,-1
 149 358 l 1,9,-1
 80 381 l 1,10,-1
 106 461 l 1,11,-1
 176 441 l 1,12,-1
 271 386 l 1,13,-1
 276 392 l 1,14,-1
 254 499 l 1,15,-1
 254 572 l 1,16,-1
 343 572 l 1,17,-1
 343 499 l 1,18,-1
 322 392 l 1,19,-1
 328 388 l 1,20,-1
 423 441 l 1,21,-1
 494 463 l 1,22,-1
 521 379 l 1,23,-1
 450 357 l 1,24,-1
 341 343 l 1,25,-1
 340 337 l 1,26,-1
 419 265 l 1,27,-1
 464 204 l 1,28,-1
 394 152 l 1,29,-1
 349 212 l 1,0,-1
EndSplineSet
Validated: 1
EndChar
StartChar: dollar
Encoding: 36 36 87
Width: 600
GlyphClass: 1
Flags: W
LayerCount: 2
Fore
SplineSet
269 12 m 1,0,1
 193 15 193 15 151.5 32 c 128,-1,2
 110 49 110 49 92.5 85.5 c 128,-1,3
 75 122 75 122 74 186 c 1,4,-1
 149 186 l 1,5,6
 157 133 157 133 182.5 110 c 128,-1,7
 208 87 208 87 269 83 c 1,8,-1
 269 325 l 1,9,10
 195 348 195 348 154 371.5 c 128,-1,11
 113 395 113 395 96 426.5 c 128,-1,12
 79 458 79 458 79 506 c 0,13,14
 79 566 79 566 96 600.5 c 128,-1,15
 113 635 113 635 154 650.5 c 128,-1,16
 195 666 195 666 269 669 c 1,17,-1
 269 763 l 1,18,-1
 334 763 l 1,19,-1
 334 668 l 1,20,21
 400 665 400 665 437.5 650 c 128,-1,22
 475 635 475 635 492.5 603.5 c 128,-1,23
 510 572 510 572 514 516 c 1,24,-1
 435 516 l 1,25,26
 430 558 430 558 408 576 c 128,-1,27
 386 594 386 594 334 598 c 1,28,-1
 334 382 l 1,29,-1
 340 380 l 2,30,31
 413 356 413 356 452.5 331 c 128,-1,32
 492 306 492 306 509 271.5 c 128,-1,33
 526 237 526 237 526 182 c 0,34,35
 526 119 526 119 508.5 83 c 128,-1,36
 491 47 491 47 449.5 30.5 c 128,-1,37
 408 14 408 14 334 12 c 1,38,-1
 334 -93 l 1,39,-1
 269 -93 l 1,40,-1
 269 12 l 1,0,1
178.5 450 m 128,-1,42
 204 428 204 428 269 404 c 1,43,-1
 269 599 l 1,44,45
 203 596 203 596 178 575 c 128,-1,46
 153 554 153 554 153 502 c 0,47,41
 153 472 153 472 178.5 450 c 128,-1,42
426.5 107 m 128,-1,49
 452 129 452 129 452 181 c 0,50,51
 452 224 452 224 426 252 c 128,-1,52
 400 280 400 280 334 304 c 1,53,-1
 334 82 l 1,54,48
 401 85 401 85 426.5 107 c 128,-1,49
EndSplineSet
Validated: 1
EndChar
StartChar: percent
Encoding: 37 37 94
Width: 600
GlyphClass: 1
Flags: W
LayerCount: 2
Fore
SplineSet
468 680 m 1,0,-1
 551 680 l 1,1,-1
 124 0 l 1,2,-1
 42 0 l 1,3,-1
 468 680 l 1,0,-1
64 656 m 128,-1,5
 94 689 94 689 163 689 c 256,6,7
 232 689 232 689 263 656 c 128,-1,8
 294 623 294 623 294 547 c 0,9,10
 294 475 294 475 263 442 c 128,-1,11
 232 409 232 409 163 409 c 256,12,13
 94 409 94 409 64 441.5 c 128,-1,14
 34 474 34 474 34 547 c 0,15,4
 34 623 34 623 64 656 c 128,-1,5
110 500.5 m 128,-1,17
 114 486 114 486 126 480.5 c 128,-1,18
 138 475 138 475 163 475 c 256,19,20
 188 475 188 475 200 480.5 c 128,-1,21
 212 486 212 486 217 501 c 128,-1,22
 222 516 222 516 222 547 c 0,23,24
 222 581 222 581 217 597.5 c 128,-1,25
 212 614 212 614 200 620 c 128,-1,26
 188 626 188 626 163 626 c 256,27,28
 138 626 138 626 126 620 c 128,-1,29
 114 614 114 614 110 597.5 c 128,-1,30
 106 581 106 581 106 547 c 0,31,16
 106 515 106 515 110 500.5 c 128,-1,17
335 238 m 128,-1,33
 365 271 365 271 434 271 c 256,34,35
 503 271 503 271 534 238 c 128,-1,36
 565 205 565 205 565 129 c 0,37,38
 565 56 565 56 534 23.5 c 128,-1,39
 503 -9 503 -9 434 -9 c 256,40,41
 365 -9 365 -9 335 23.5 c 128,-1,42
 305 56 305 56 305 129 c 0,43,32
 305 205 305 205 335 238 c 128,-1,33
381 82.5 m 128,-1,45
 385 68 385 68 397 62.5 c 128,-1,46
 409 57 409 57 434 57 c 256,47,48
 459 57 459 57 471 62.5 c 128,-1,49
 483 68 483 68 488 83 c 128,-1,50
 493 98 493 98 493 129 c 0,51,52
 493 163 493 163 488 179.5 c 128,-1,53
 483 196 483 196 471 202 c 128,-1,54
 459 208 459 208 434 208 c 256,55,56
 409 208 409 208 397 202 c 128,-1,57
 385 196 385 196 381 179.5 c 128,-1,58
 377 163 377 163 377 129 c 0,59,44
 377 97 377 97 381 82.5 c 128,-1,45
EndSplineSet
Validated: 1
EndChar
StartChar: ampersand
Encoding: 38 38 85
Width: 600
GlyphClass: 1
Flags: W
LayerCount: 2
Fore
SplineSet
136.5 7 m 128,-1,1
 89 24 89 24 69 64 c 128,-1,2
 49 104 49 104 49 178 c 0,3,4
 49 210 49 210 61 236 c 128,-1,5
 73 262 73 262 100.5 292.5 c 128,-1,6
 128 323 128 323 183 373 c 1,7,8
 129 439 129 439 107.5 478 c 128,-1,9
 86 517 86 517 86 547 c 0,10,11
 86 603 86 603 101 633.5 c 128,-1,12
 116 664 116 664 151 677 c 128,-1,13
 186 690 186 690 251 690 c 256,14,15
 316 690 316 690 351.5 677 c 128,-1,16
 387 664 387 664 401.5 633.5 c 128,-1,17
 416 603 416 603 416 547 c 0,18,19
 416 520 416 520 386 479 c 128,-1,20
 356 438 356 438 281 365 c 1,21,-1
 440 173 l 1,22,23
 445 197 445 197 445 247 c 2,24,-1
 444 324 l 1,25,-1
 518 324 l 1,26,27
 520 184 520 184 495 112 c 1,28,-1
 588 0 l 1,29,-1
 497 0 l 1,30,-1
 457 47 l 1,31,32
 429 16 429 16 383.5 3 c 128,-1,33
 338 -10 338 -10 271 -10 c 0,34,0
 184 -10 184 -10 136.5 7 c 128,-1,1
138 104.5 m 128,-1,36
 151 80 151 80 182 69.5 c 128,-1,37
 213 59 213 59 271 59 c 0,38,39
 325 59 325 59 357.5 68 c 128,-1,40
 390 77 390 77 409 103 c 1,41,-1
 226 321 l 1,42,43
 168 263 168 263 146.5 232 c 128,-1,44
 125 201 125 201 125 174 c 0,45,35
 125 129 125 129 138 104.5 c 128,-1,36
177.5 500 m 128,-1,47
 192 474 192 474 236 420 c 1,48,49
 302 486 302 486 321 508.5 c 128,-1,50
 340 531 340 531 340 547 c 0,51,52
 340 591 340 591 321.5 607 c 128,-1,53
 303 623 303 623 252 623 c 256,54,55
 201 623 201 623 182 607 c 128,-1,56
 163 591 163 591 163 547 c 0,57,46
 163 526 163 526 177.5 500 c 128,-1,47
EndSplineSet
Validated: 33
EndChar
StartChar: quotesingle
Encoding: 39 39 83
Width: 600
GlyphClass: 1
Flags: W
LayerCount: 2
Fore
SplineSet
245 655 m 1,0,-1
 245 726 l 1,1,-1
 352 726 l 1,2,-1
 352 655 l 1,3,-1
 332 405 l 1,4,-1
 265 405 l 1,5,-1
 245 655 l 1,0,-1
EndSplineSet
Validated: 1
EndChar
StartChar: parenleft
Encoding: 40 40 76
Width: 600
GlyphClass: 1
Flags: W
LayerCount: 2
Fore
SplineSet
358 -87.5 m 128,-1,1
 314 -66 314 -66 286.5 -20 c 128,-1,2
 259 26 259 26 239 109 c 0,3,4
 226 165 226 165 221 211 c 128,-1,5
 216 257 216 257 216 327 c 256,6,7
 216 397 216 397 221 443 c 128,-1,8
 226 489 226 489 239 545 c 0,9,10
 259 628 259 628 286.5 674 c 128,-1,11
 314 720 314 720 358 741.5 c 128,-1,12
 402 763 402 763 474 768 c 1,13,-1
 473 682 l 1,14,15
 423 677 423 677 393 661.5 c 128,-1,16
 363 646 363 646 345.5 613 c 128,-1,17
 328 580 328 580 317 521 c 0,18,19
 307 464 307 464 303 423 c 128,-1,20
 299 382 299 382 299 327 c 256,21,22
 299 272 299 272 303 231 c 128,-1,23
 307 190 307 190 317 133 c 0,24,25
 329 74 329 74 346.5 41 c 128,-1,26
 364 8 364 8 393.5 -7.5 c 128,-1,27
 423 -23 423 -23 473 -28 c 1,28,-1
 474 -114 l 1,29,0
 402 -109 402 -109 358 -87.5 c 128,-1,1
EndSplineSet
Validated: 1
EndChar
StartChar: parenright
Encoding: 41 41 77
Width: 600
GlyphClass: 1
Flags: W
LayerCount: 2
Fore
SplineSet
206.5 -7.5 m 128,-1,1
 236 8 236 8 253.5 41 c 128,-1,2
 271 74 271 74 283 133 c 0,3,4
 293 190 293 190 297 231 c 128,-1,5
 301 272 301 272 301 327 c 256,6,7
 301 382 301 382 297 423 c 128,-1,8
 293 464 293 464 283 521 c 0,9,10
 272 580 272 580 254.5 613 c 128,-1,11
 237 646 237 646 207 661.5 c 128,-1,12
 177 677 177 677 127 682 c 1,13,-1
 126 768 l 1,14,15
 198 763 198 763 242 741.5 c 128,-1,16
 286 720 286 720 313.5 674 c 128,-1,17
 341 628 341 628 361 545 c 0,18,19
 374 489 374 489 379 443 c 128,-1,20
 384 397 384 397 384 327 c 256,21,22
 384 257 384 257 379 211 c 128,-1,23
 374 165 374 165 361 109 c 0,24,25
 341 26 341 26 313.5 -20 c 128,-1,26
 286 -66 286 -66 242 -87.5 c 128,-1,27
 198 -109 198 -109 126 -114 c 1,28,-1
 127 -28 l 1,29,0
 177 -23 177 -23 206.5 -7.5 c 128,-1,1
EndSplineSet
Validated: 1
EndChar
StartChar: asterisk
Encoding: 42 42 70
Width: 600
GlyphClass: 1
Flags: W
LayerCount: 2
Fore
SplineSet
121 183 m 1,0,-1
 15 183 l 1,1,-1
 30 255 l 1,2,-1
 136 255 l 1,3,-1
 173 426 l 1,4,-1
 67 426 l 1,5,-1
 82 497 l 1,6,-1
 188 497 l 1,7,-1
 227 680 l 1,8,-1
 300 680 l 1,9,-1
 261 497 l 1,10,-1
 402 497 l 1,11,-1
 441 680 l 1,12,-1
 516 680 l 1,13,-1
 477 497 l 1,14,-1
 588 497 l 1,15,-1
 573 426 l 1,16,-1
 462 426 l 1,17,-1
 425 255 l 1,18,-1
 536 255 l 1,19,-1
 521 183 l 1,20,-1
 410 183 l 1,21,-1
 371 0 l 1,22,-1
 296 0 l 1,23,-1
 335 183 l 1,24,-1
 194 183 l 1,25,-1
 155 0 l 1,26,-1
 82 0 l 1,27,-1
 121 183 l 1,0,-1
353 251 m 1,28,-1
 392 430 l 1,29,-1
 243 430 l 1,30,-1
 204 251 l 1,31,-1
 353 251 l 1,28,-1
EndSplineSet
Validated: 1
EndChar
StartChar: plus
Encoding: 43 43 88
Width: 600
GlyphClass: 1
Flags: W
LayerCount: 2
Fore
SplineSet
260 264 m 1,0,-1
 58 264 l 1,1,-1
 58 340 l 1,2,-1
 260 340 l 1,3,-1
 260 550 l 1,4,-1
 340 550 l 1,5,-1
 340 340 l 1,6,-1
 542 340 l 1,7,-1
 542 264 l 1,8,-1
 340 264 l 1,9,-1
 340 48 l 1,10,-1
 260 48 l 1,11,-1
 260 264 l 1,0,-1
EndSplineSet
Validated: 1
EndChar
StartChar: comma
Encoding: 44 44 65
Width: 600
GlyphClass: 1
Flags: W
LayerCount: 2
Fore
SplineSet
240 57 m 2,1,-1
 240 135 l 1,2,-1
 360 135 l 1,3,-1
 360 61 l 2,4,5
 360 48 360 48 353 34 c 2,6,-1
 251 -176 l 1,7,-1
 169 -176 l 1,8,-1
 237 37 l 2,9,0
 240 46 240 46 240 57 c 2,1,-1
EndSplineSet
Validated: 1
EndChar
StartChar: hyphen
Encoding: 45 45 74
Width: 600
GlyphClass: 1
Flags: W
LayerCount: 2
Fore
SplineSet
129 338 m 1,0,-1
 471 338 l 1,1,-1
 471 258 l 1,2,-1
 129 258 l 1,3,-1
 129 338 l 1,0,-1
EndSplineSet
Validated: 1
EndChar
StartChar: period
Encoding: 46 46 64
Width: 600
GlyphClass: 1
Flags: W
LayerCount: 2
Fore
SplineSet
224 153 m 1,0,-1
 376 153 l 1,1,-1
 376 0 l 1,2,-1
 224 0 l 1,3,-1
 224 153 l 1,0,-1
EndSplineSet
Validated: 1
EndChar
StartChar: slash
Encoding: 47 47 72
Width: 600
GlyphClass: 1
Flags: W
HStem: -114 882<83 516 83 516>
VStem: 83 433
LayerCount: 2
Fore
SplineSet
83 -114 m 1,0,-1
 431 768 l 1,1,-1
 516 768 l 1,2,-1
 167 -114 l 1,3,-1
 83 -114 l 1,0,-1
EndSplineSet
Validated: 1
EndChar
StartChar: zero
Encoding: 48 48 54
Width: 600
GlyphClass: 1
Flags: W
LayerCount: 2
Fore
SplineSet
186 0.5 m 128,-1,1
 148 11 148 11 127 42 c 128,-1,2
 106 73 106 73 90 140 c 0,3,4
 81 178 81 178 76 223 c 128,-1,5
 71 268 71 268 71 340 c 0,6,7
 71 411 71 411 76.5 456 c 128,-1,8
 82 501 82 501 91 540 c 0,9,10
 107 607 107 607 127.5 638 c 128,-1,11
 148 669 148 669 186 679.5 c 128,-1,12
 224 690 224 690 300 690 c 256,13,14
 376 690 376 690 414 679.5 c 128,-1,15
 452 669 452 669 472.5 638 c 128,-1,16
 493 607 493 607 509 540 c 0,17,18
 518 501 518 501 523.5 456 c 128,-1,19
 529 411 529 411 529 340 c 0,20,21
 529 268 529 268 524 223 c 128,-1,22
 519 178 519 178 510 140 c 0,23,24
 494 73 494 73 473 42 c 128,-1,25
 452 11 452 11 414 0.5 c 128,-1,26
 376 -10 376 -10 300 -10 c 256,27,0
 224 -10 224 -10 186 0.5 c 128,-1,1
160 242 m 128,-1,29
 164 208 164 208 171 166 c 0,30,31
 178 126 178 126 189.5 105 c 128,-1,32
 201 84 201 84 226.5 74 c 128,-1,33
 252 64 252 64 300 64 c 256,34,35
 348 64 348 64 373.5 74 c 128,-1,36
 399 84 399 84 410.5 105 c 128,-1,37
 422 126 422 126 429 166 c 0,38,39
 436 208 436 208 440 242 c 128,-1,40
 444 276 444 276 444 340 c 256,41,42
 444 404 444 404 440 438 c 128,-1,43
 436 472 436 472 429 514 c 0,44,45
 422 554 422 554 410.5 575 c 128,-1,46
 399 596 399 596 373.5 606 c 128,-1,47
 348 616 348 616 300 616 c 256,48,49
 252 616 252 616 226.5 606 c 128,-1,50
 201 596 201 596 189.5 575 c 128,-1,51
 178 554 178 554 171 514 c 0,52,53
 164 472 164 472 160 438 c 128,-1,54
 156 404 156 404 156 340 c 256,55,28
 156 276 156 276 160 242 c 128,-1,29
EndSplineSet
Validated: 1
EndChar
StartChar: one
Encoding: 49 49 55
Width: 600
GlyphClass: 1
Flags: W
LayerCount: 2
Fore
SplineSet
321 488 m 1,0,-1
 327 590 l 1,1,-1
 321 590 l 1,2,-1
 253 533 l 1,3,-1
 106 440 l 1,4,-1
 106 534 l 1,5,-1
 309 680 l 1,6,-1
 405 680 l 1,7,-1
 405 0 l 1,8,-1
 321 0 l 1,9,-1
 321 488 l 1,0,-1
EndSplineSet
Validated: 1
EndChar
StartChar: two
Encoding: 50 50 56
Width: 600
GlyphClass: 1
Flags: W
LayerCount: 2
Fore
SplineSet
280 295.5 m 128,-1,1
 342 353 342 353 383 405 c 0,2,3
 405 431 405 431 413 451.5 c 128,-1,4
 421 472 421 472 421 501 c 0,5,6
 421 545 421 545 409.5 569.5 c 128,-1,7
 398 594 398 594 371 604 c 128,-1,8
 344 614 344 614 294 614 c 0,9,10
 246 614 246 614 219 605.5 c 128,-1,11
 192 597 192 597 179 576.5 c 128,-1,12
 166 556 166 556 162 518 c 1,13,-1
 73 518 l 1,14,15
 79 586 79 586 100.5 622.5 c 128,-1,16
 122 659 122 659 167 674.5 c 128,-1,17
 212 690 212 690 293 690 c 0,18,19
 377 690 377 690 422.5 673 c 128,-1,20
 468 656 468 656 487 615 c 128,-1,21
 506 574 506 574 506 499 c 0,22,23
 506 453 506 453 492 421 c 128,-1,24
 478 389 478 389 439 347 c 0,25,26
 366 270 366 270 311 216.5 c 128,-1,27
 256 163 256 163 176 94 c 1,28,-1
 176 80 l 1,29,-1
 521 80 l 1,30,-1
 521 0 l 1,31,-1
 87 0 l 1,32,-1
 87 126 l 1,33,0
 218 238 218 238 280 295.5 c 128,-1,1
EndSplineSet
Validated: 1
EndChar
StartChar: three
Encoding: 51 51 57
Width: 600
GlyphClass: 1
Flags: W
LayerCount: 2
Fore
SplineSet
158 -1.5 m 128,-1,1
 120 6 120 6 75 25 c 1,2,-1
 75 112 l 1,3,4
 127 87 127 87 165 77 c 128,-1,5
 203 67 203 67 245 67 c 0,6,7
 307 67 307 67 342.5 81 c 128,-1,8
 378 95 378 95 393.5 127 c 128,-1,9
 409 159 409 159 409 215 c 0,10,11
 409 281 409 281 380 309.5 c 128,-1,12
 351 338 351 338 282 338 c 0,13,14
 247 338 247 338 189 330 c 1,15,-1
 189 424 l 1,16,-1
 377 603 l 1,17,-1
 377 607 l 1,18,-1
 89 607 l 1,19,-1
 89 680 l 1,20,-1
 457 680 l 1,21,-1
 457 585 l 1,22,-1
 270 407 l 1,23,-1
 271 405 l 1,24,25
 303 407 303 407 315 407 c 0,26,27
 409 407 409 407 451 361.5 c 128,-1,28
 493 316 493 316 493 212 c 0,29,30
 493 129 493 129 469.5 81 c 128,-1,31
 446 33 446 33 393.5 12 c 128,-1,32
 341 -9 341 -9 249 -9 c 0,33,0
 196 -9 196 -9 158 -1.5 c 128,-1,1
EndSplineSet
Validated: 1
EndChar
StartChar: four
Encoding: 52 52 58
Width: 600
GlyphClass: 1
Flags: W
LayerCount: 2
Fore
SplineSet
80 226 m 1,0,-1
 306 690 l 1,1,-1
 397 690 l 1,2,-1
 166 226 l 1,3,-1
 166 204 l 1,4,-1
 354 204 l 1,5,-1
 354 370 l 1,6,-1
 434 370 l 1,7,-1
 434 204 l 1,8,-1
 530 204 l 1,9,-1
 530 128 l 1,10,-1
 434 128 l 1,11,-1
 434 0 l 1,12,-1
 354 0 l 1,13,-1
 354 128 l 1,14,-1
 80 128 l 1,15,-1
 80 226 l 1,0,-1
EndSplineSet
Validated: 1
EndChar
StartChar: five
Encoding: 53 53 59
Width: 600
GlyphClass: 1
Flags: W
LayerCount: 2
Fore
SplineSet
166 0.5 m 128,-1,1
 128 8 128 8 84 27 c 1,2,-1
 84 116 l 1,3,4
 139 90 139 90 178 79.5 c 128,-1,5
 217 69 217 69 263 69 c 0,6,7
 349 69 349 69 385 103 c 128,-1,8
 421 137 421 137 421 220 c 0,9,10
 421 288 421 288 396.5 317.5 c 128,-1,11
 372 347 372 347 309 355 c 0,12,13
 285 358 285 358 257 358 c 0,14,15
 204 358 204 358 103 345 c 1,16,-1
 130 680 l 1,17,-1
 476 680 l 1,18,-1
 476 606 l 1,19,-1
 203 604 l 1,20,-1
 190 428 l 1,21,22
 223 438 223 438 262 438 c 0,23,24
 283 438 283 438 310 435 c 0,25,26
 383 427 383 427 425 404.5 c 128,-1,27
 467 382 467 382 486 338 c 128,-1,28
 505 294 505 294 505 220 c 0,29,30
 505 135 505 135 481 86 c 128,-1,31
 457 37 457 37 403 15 c 128,-1,32
 349 -7 349 -7 256 -7 c 0,33,0
 204 -7 204 -7 166 0.5 c 128,-1,1
EndSplineSet
Validated: 1
EndChar
StartChar: six
Encoding: 54 54 60
Width: 600
GlyphClass: 1
Flags: W
LayerCount: 2
Fore
SplineSet
160 7.5 m 128,-1,1
 114 25 114 25 96.5 71 c 128,-1,2
 79 117 79 117 79 213 c 0,3,4
 79 315 79 315 93 378 c 128,-1,5
 107 441 107 441 159.5 514 c 128,-1,6
 212 587 212 587 327 690 c 1,7,-1
 444 690 l 1,8,9
 333 592 333 592 276 533.5 c 128,-1,10
 219 475 219 475 197.5 440.5 c 128,-1,11
 176 406 176 406 165 368 c 1,12,-1
 170 364 l 1,13,14
 181 393 181 393 221 407.5 c 128,-1,15
 261 422 261 422 322 422 c 0,16,17
 407 422 407 422 448.5 405.5 c 128,-1,18
 490 389 490 389 505.5 345 c 128,-1,19
 521 301 521 301 521 210 c 0,20,21
 521 116 521 116 503.5 70.5 c 128,-1,22
 486 25 486 25 440.5 7.5 c 128,-1,23
 395 -10 395 -10 301 -10 c 0,24,0
 206 -10 206 -10 160 7.5 c 128,-1,1
173.5 112 m 128,-1,26
 185 83 185 83 213.5 72 c 128,-1,27
 242 61 242 61 301 61 c 256,28,29
 360 61 360 61 388.5 72.5 c 128,-1,30
 417 84 417 84 428 114.5 c 128,-1,31
 439 145 439 145 439 209 c 0,32,33
 439 269 439 269 428 298 c 128,-1,34
 417 327 417 327 388.5 338 c 128,-1,35
 360 349 360 349 301 349 c 0,36,37
 240 349 240 349 211.5 337.5 c 128,-1,38
 183 326 183 326 172.5 295.5 c 128,-1,39
 162 265 162 265 162 200 c 0,40,25
 162 141 162 141 173.5 112 c 128,-1,26
EndSplineSet
Validated: 1
EndChar
StartChar: seven
Encoding: 55 55 61
Width: 600
GlyphClass: 1
Flags: W
LayerCount: 2
Fore
SplineSet
414 598 m 1,0,-1
 69 598 l 1,1,-1
 69 680 l 1,2,-1
 495 680 l 1,3,-1
 495 576 l 1,4,-1
 205 -10 l 1,5,-1
 109 -10 l 1,6,-1
 414 598 l 1,0,-1
EndSplineSet
Validated: 1
EndChar
StartChar: eight
Encoding: 56 56 62
Width: 600
GlyphClass: 1
Flags: W
LayerCount: 2
Fore
SplineSet
157 5 m 128,-1,1
 111 20 111 20 93.5 59.5 c 128,-1,2
 76 99 76 99 76 181 c 0,3,4
 76 230 76 230 86 258.5 c 128,-1,5
 96 287 96 287 122.5 310.5 c 128,-1,6
 149 334 149 334 203 364 c 1,7,-1
 203 370 l 1,8,9
 156 395 156 395 133 415 c 128,-1,10
 110 435 110 435 101.5 460 c 128,-1,11
 93 485 93 485 93 527 c 0,12,13
 93 597 93 597 109 630.5 c 128,-1,14
 125 664 125 664 167.5 677 c 128,-1,15
 210 690 210 690 299 690 c 256,16,17
 388 690 388 690 431 677 c 128,-1,18
 474 664 474 664 490 630.5 c 128,-1,19
 506 597 506 597 506 527 c 0,20,21
 506 485 506 485 497.5 460 c 128,-1,22
 489 435 489 435 466 415 c 128,-1,23
 443 395 443 395 396 370 c 1,24,-1
 396 364 l 1,25,26
 451 333 451 333 477.5 310 c 128,-1,27
 504 287 504 287 514 258 c 128,-1,28
 524 229 524 229 524 181 c 0,29,30
 524 99 524 99 506.5 59.5 c 128,-1,31
 489 20 489 20 442 5 c 128,-1,32
 395 -10 395 -10 299 -10 c 256,33,0
 203 -10 203 -10 157 5 c 128,-1,1
170 105 m 128,-1,35
 181 82 181 82 210 73 c 128,-1,36
 239 64 239 64 299 64 c 0,37,38
 360 64 360 64 389.5 72.5 c 128,-1,39
 419 81 419 81 430 104 c 128,-1,40
 441 127 441 127 441 175 c 0,41,42
 441 221 441 221 430 247.5 c 128,-1,43
 419 274 419 274 389.5 293 c 128,-1,44
 360 312 360 312 299 334 c 1,45,46
 239 312 239 312 210 293.5 c 128,-1,47
 181 275 181 275 170 249 c 128,-1,48
 159 223 159 223 159 177 c 0,49,34
 159 128 159 128 170 105 c 128,-1,35
185.5 466.5 m 128,-1,51
 195 445 195 445 220.5 430.5 c 128,-1,52
 246 416 246 416 299 401 c 1,53,54
 352 417 352 417 378 431 c 128,-1,55
 404 445 404 445 413.5 466.5 c 128,-1,56
 423 488 423 488 423 526 c 0,57,58
 423 565 423 565 413.5 584 c 128,-1,59
 404 603 404 603 378 610 c 128,-1,60
 352 617 352 617 299 617 c 256,61,62
 246 617 246 617 220.5 610 c 128,-1,63
 195 603 195 603 185.5 584.5 c 128,-1,64
 176 566 176 566 176 527 c 256,65,50
 176 488 176 488 185.5 466.5 c 128,-1,51
EndSplineSet
Validated: 1
EndChar
StartChar: nine
Encoding: 57 57 63
Width: 600
GlyphClass: 1
Flags: W
LayerCount: 2
Fore
SplineSet
296.5 134 m 128,-1,1
 343 191 343 191 409 292 c 1,2,-1
 404 296 l 1,3,4
 381 267 381 267 357 258 c 128,-1,5
 333 249 333 249 280 249 c 0,6,7
 191 249 191 249 148 266 c 128,-1,8
 105 283 105 283 89 328 c 128,-1,9
 73 373 73 373 73 466 c 0,10,11
 73 562 73 562 90.5 608.5 c 128,-1,12
 108 655 108 655 153.5 672.5 c 128,-1,13
 199 690 199 690 293 690 c 0,14,15
 388 690 388 690 434 672 c 128,-1,16
 480 654 480 654 497.5 607 c 128,-1,17
 515 560 515 560 515 462 c 0,18,19
 515 373 515 373 496 309 c 128,-1,20
 477 245 477 245 427 174 c 128,-1,21
 377 103 377 103 274 -10 c 1,22,-1
 163 -10 l 1,23,0
 250 77 250 77 296.5 134 c 128,-1,1
165.5 373 m 128,-1,25
 176 343 176 343 204.5 331.5 c 128,-1,26
 233 320 233 320 291 320 c 0,27,28
 353 320 353 320 382.5 332 c 128,-1,29
 412 344 412 344 422.5 376 c 128,-1,30
 433 408 433 408 433 476 c 0,31,32
 433 537 433 537 421.5 566.5 c 128,-1,33
 410 596 410 596 381 607.5 c 128,-1,34
 352 619 352 619 293 619 c 256,35,36
 234 619 234 619 205.5 607 c 128,-1,37
 177 595 177 595 166 563 c 128,-1,38
 155 531 155 531 155 465 c 0,39,24
 155 403 155 403 165.5 373 c 128,-1,25
EndSplineSet
Validated: 1
EndChar
StartChar: less
Encoding: 60 60 91
Width: 600
GlyphClass: 1
Flags: W
LayerCount: 2
Fore
SplineSet
75 258 m 1,0,-1
 75 356 l 1,1,-1
 525 575 l 1,2,-1
 525 481 l 1,3,-1
 154 311 l 1,4,-1
 154 303 l 1,5,-1
 525 133 l 1,6,-1
 525 39 l 1,7,-1
 75 258 l 1,0,-1
EndSplineSet
Validated: 1
EndChar
StartChar: equal
Encoding: 61 61 89
Width: 600
GlyphClass: 1
Flags: W
LayerCount: 2
Fore
SplineSet
67 441 m 1,0,-1
 533 441 l 1,1,-1
 533 364 l 1,2,-1
 67 364 l 1,3,-1
 67 441 l 1,0,-1
67 241 m 1,4,-1
 533 241 l 1,5,-1
 533 164 l 1,6,-1
 67 164 l 1,7,-1
 67 241 l 1,4,-1
EndSplineSet
Validated: 1
EndChar
StartChar: greater
Encoding: 62 62 90
Width: 600
GlyphClass: 1
Flags: W
LayerCount: 2
Fore
SplineSet
75 133 m 1,0,-1
 446 303 l 1,1,-1
 446 311 l 1,2,-1
 75 481 l 1,3,-1
 75 575 l 1,4,-1
 525 356 l 1,5,-1
 525 258 l 1,6,-1
 75 39 l 1,7,-1
 75 133 l 1,0,-1
EndSplineSet
Validated: 1
EndChar
StartChar: question
Encoding: 63 63 69
Width: 600
GlyphClass: 1
Flags: W
LayerCount: 2
Fore
SplineSet
245.5 322.5 m 128,-1,1
 259 346 259 346 279 358 c 128,-1,2
 299 370 299 370 332 382 c 0,3,4
 364 395 364 395 383 406 c 128,-1,5
 402 417 402 417 415 439 c 128,-1,6
 428 461 428 461 428 496 c 0,7,8
 428 548 428 548 418 573.5 c 128,-1,9
 408 599 408 599 381 608.5 c 128,-1,10
 354 618 354 618 298 618 c 0,11,12
 246 618 246 618 220.5 611 c 128,-1,13
 195 604 195 604 185.5 585 c 128,-1,14
 176 566 176 566 176 527 c 1,15,-1
 92 527 l 1,16,17
 93 596 93 596 109 630 c 128,-1,18
 125 664 125 664 167.5 676.5 c 128,-1,19
 210 689 210 689 298 689 c 0,20,21
 389 689 389 689 433 674 c 128,-1,22
 477 659 477 659 493.5 619 c 128,-1,23
 510 579 510 579 510 496 c 0,24,25
 510 443 510 443 491.5 410 c 128,-1,26
 473 377 473 377 447.5 360 c 128,-1,27
 422 343 422 343 383 327 c 0,28,29
 346 311 346 311 329 297.5 c 128,-1,30
 312 284 312 284 312 260 c 2,31,-1
 312 206 l 1,32,-1
 232 206 l 1,33,-1
 232 260 l 2,34,0
 232 299 232 299 245.5 322.5 c 128,-1,1
206 138 m 1,35,-1
 342 138 l 1,36,-1
 342 0 l 1,37,-1
 206 0 l 1,38,-1
 206 138 l 1,35,-1
EndSplineSet
Validated: 1
EndChar
StartChar: at
Encoding: 64 64 84
Width: 600
GlyphClass: 1
Flags: W
LayerCount: 2
Fore
SplineSet
112.5 -75.5 m 128,-1,1
 79 -63 79 -63 67 -29.5 c 128,-1,2
 55 4 55 4 55 75 c 2,3,-1
 55 511 l 2,4,5
 55 588 55 588 67.5 625 c 128,-1,6
 80 662 80 662 113.5 676 c 128,-1,7
 147 690 147 690 219 690 c 2,8,-1
 423 690 l 2,9,10
 475 690 475 690 500 676 c 128,-1,11
 525 662 525 662 534.5 624.5 c 128,-1,12
 544 587 544 587 544 510 c 2,13,-1
 544 464 l 1,14,-1
 543 110 l 1,15,-1
 504 110 l 2,16,17
 498 110 498 110 496 111.5 c 128,-1,18
 494 113 494 113 490 122 c 128,-1,19
 486 131 486 131 481 146 c 1,20,-1
 474 146 l 1,21,22
 462 125 462 125 455 118 c 128,-1,23
 448 111 448 111 435.5 109.5 c 128,-1,24
 423 108 423 108 387 108 c 0,25,26
 308 108 308 108 279 116.5 c 128,-1,27
 250 125 250 125 239.5 161 c 128,-1,28
 229 197 229 197 229 292 c 0,29,30
 229 386 229 386 239.5 422 c 128,-1,31
 250 458 250 458 278 466.5 c 128,-1,32
 306 475 306 475 383 475 c 0,33,34
 412 475 412 475 423 473 c 128,-1,35
 434 471 434 471 442.5 464 c 128,-1,36
 451 457 451 457 472 435 c 1,37,-1
 480 435 l 1,38,-1
 480 510 l 2,39,40
 480 555 480 555 475.5 577 c 128,-1,41
 471 599 471 599 459 607 c 128,-1,42
 447 615 447 615 423 615 c 2,43,-1
 218 615 l 2,44,45
 177 615 177 615 158.5 607 c 128,-1,46
 140 599 140 599 133.5 578.5 c 128,-1,47
 127 558 127 558 127 513 c 2,48,-1
 127 77 l 2,49,50
 127 37 127 37 133.5 18.5 c 128,-1,51
 140 0 140 0 158 -7 c 128,-1,52
 176 -14 176 -14 215 -14 c 2,53,-1
 418 -14 l 1,54,-1
 418 -88 l 1,55,-1
 217 -88 l 2,56,0
 146 -88 146 -88 112.5 -75.5 c 128,-1,1
305 211.5 m 128,-1,58
 313 188 313 188 331.5 183 c 128,-1,59
 350 178 350 178 396 178 c 0,60,61
 440 178 440 178 454.5 183 c 128,-1,62
 469 188 469 188 472.5 207.5 c 128,-1,63
 476 227 476 227 476 289 c 0,64,65
 476 353 476 353 472.5 374 c 128,-1,66
 469 395 469 395 454.5 400 c 128,-1,67
 440 405 440 405 396 405 c 0,68,69
 350 405 350 405 331.5 399.5 c 128,-1,70
 313 394 313 394 305 371 c 128,-1,71
 297 348 297 348 297 291 c 0,72,57
 297 235 297 235 305 211.5 c 128,-1,58
EndSplineSet
Validated: 1
EndChar
StartChar: A
Encoding: 65 65 2
Width: 600
GlyphClass: 1
Flags: W
LayerCount: 2
Fore
SplineSet
236 680 m 1,0,-1
 366 680 l 1,1,-1
 561 0 l 1,2,-1
 476 0 l 1,3,-1
 426 172 l 1,4,-1
 175 172 l 1,5,-1
 126 0 l 1,6,-1
 41 0 l 1,7,-1
 236 680 l 1,0,-1
407 247 m 1,8,-1
 305 607 l 1,9,-1
 297 607 l 1,10,-1
 195 247 l 1,11,-1
 407 247 l 1,8,-1
EndSplineSet
Validated: 1
EndChar
StartChar: B
Encoding: 66 66 3
Width: 600
GlyphClass: 1
Flags: W
LayerCount: 2
Fore
SplineSet
90 0 m 1,1,-1
 90 680 l 1,2,3
 188 685 188 685 226 685 c 0,4,5
 334 685 334 685 392.5 669 c 128,-1,6
 451 653 451 653 475.5 614.5 c 128,-1,7
 500 576 500 576 500 505 c 0,8,9
 500 457 500 457 491.5 428.5 c 128,-1,10
 483 400 483 400 462.5 384.5 c 128,-1,11
 442 369 442 369 405 360 c 1,12,-1
 405 354 l 1,13,14
 453 340 453 340 479.5 320 c 128,-1,15
 506 300 506 300 517 267.5 c 128,-1,16
 528 235 528 235 528 180 c 0,17,18
 528 106 528 106 504 66 c 128,-1,19
 480 26 480 26 423 9 c 128,-1,20
 366 -8 366 -8 260 -8 c 0,21,0
 178 -8 178 -8 90 0 c 1,1,-1
258 68 m 0,23,24
 332 68 332 68 370.5 78 c 128,-1,25
 409 88 409 88 425.5 114 c 128,-1,26
 442 140 442 140 442 190 c 0,27,28
 442 239 442 239 429.5 265.5 c 128,-1,29
 417 292 417 292 387.5 303 c 128,-1,30
 358 314 358 314 303 314 c 2,31,-1
 174 314 l 1,32,-1
 174 73 l 1,33,22
 213 68 213 68 258 68 c 0,23,24
327 388 m 2,34,35
 362 390 362 390 381 400 c 128,-1,36
 400 410 400 410 408 432 c 128,-1,37
 416 454 416 454 416 495 c 256,38,39
 416 536 416 536 406 559 c 128,-1,40
 396 582 396 582 372.5 593 c 128,-1,41
 349 604 349 604 305 607 c 0,42,43
 266 610 266 610 233 610 c 0,44,45
 197 610 197 610 174 609 c 1,46,-1
 174 388 l 1,47,-1
 327 388 l 2,34,35
EndSplineSet
Validated: 1
EndChar
StartChar: C
Encoding: 67 67 4
Width: 600
GlyphClass: 1
Flags: W
LayerCount: 2
Fore
SplineSet
178 21 m 128,-1,1
 126 52 126 52 104.5 126.5 c 128,-1,2
 83 201 83 201 83 339 c 0,3,4
 83 478 83 478 104.5 552.5 c 128,-1,5
 126 627 126 627 177.5 658.5 c 128,-1,6
 229 690 229 690 325 690 c 0,7,8
 394 690 394 690 435.5 674 c 128,-1,9
 477 658 477 658 499 620 c 128,-1,10
 521 582 521 582 527 515 c 1,11,-1
 442 515 l 1,12,13
 435 558 435 558 421.5 580 c 128,-1,14
 408 602 408 602 387 609.5 c 128,-1,15
 366 617 366 617 330 617 c 0,16,17
 266 617 266 617 231.5 593 c 128,-1,18
 197 569 197 569 183 510.5 c 128,-1,19
 169 452 169 452 169 341 c 256,20,21
 169 230 169 230 183 171 c 128,-1,22
 197 112 197 112 230.5 87.5 c 128,-1,23
 264 63 264 63 327 63 c 0,24,25
 386 63 386 63 412 84 c 128,-1,26
 438 105 438 105 448 160 c 1,27,-1
 533 160 l 1,28,29
 527 95 527 95 504 58 c 128,-1,30
 481 21 481 21 438 5.5 c 128,-1,31
 395 -10 395 -10 326 -10 c 0,32,0
 230 -10 230 -10 178 21 c 128,-1,1
EndSplineSet
Validated: 1
EndChar
StartChar: D
Encoding: 68 68 5
Width: 600
GlyphClass: 1
Flags: W
LayerCount: 2
Fore
SplineSet
153 -6 m 128,-1,1
 119 -4 119 -4 83 0 c 1,2,-1
 83 680 l 1,3,4
 120 684 120 684 172 684 c 0,5,6
 230 684 230 684 272 679 c 0,7,8
 374 668 374 668 429 634 c 128,-1,9
 484 600 484 600 507.5 529 c 128,-1,10
 531 458 531 458 531 330 c 0,11,12
 531 195 531 195 504.5 123.5 c 128,-1,13
 478 52 478 52 414 22 c 128,-1,14
 350 -8 350 -8 230 -8 c 0,15,0
 187 -8 187 -8 153 -6 c 128,-1,1
196 69 m 2,16,17
 236 67 236 67 245 67 c 0,18,19
 255 67 255 67 285 69 c 0,20,21
 345 74 345 74 379.5 99 c 128,-1,22
 414 124 414 124 429.5 181 c 128,-1,23
 445 238 445 238 445 341 c 0,24,25
 445 438 445 438 430 490.5 c 128,-1,26
 415 543 415 543 378 568.5 c 128,-1,27
 341 594 341 594 271 603 c 0,28,29
 221 610 221 610 169 608 c 1,30,-1
 169 71 l 1,31,-1
 196 69 l 2,16,17
EndSplineSet
Validated: 33
EndChar
StartChar: E
Encoding: 69 69 6
Width: 600
GlyphClass: 1
Flags: W
LayerCount: 2
Fore
SplineSet
114 680 m 1,0,-1
 491 680 l 1,1,-1
 491 602 l 1,2,-1
 200 602 l 1,3,-1
 200 393 l 1,4,-1
 453 393 l 1,5,-1
 453 315 l 1,6,-1
 200 315 l 1,7,-1
 200 78 l 1,8,-1
 511 78 l 1,9,-1
 511 0 l 1,10,-1
 114 0 l 1,11,-1
 114 680 l 1,0,-1
EndSplineSet
Validated: 1
EndChar
StartChar: F
Encoding: 70 70 7
Width: 600
GlyphClass: 1
Flags: W
LayerCount: 2
Fore
SplineSet
112 680 m 1,0,-1
 519 680 l 1,1,-1
 519 601 l 1,2,-1
 198 601 l 1,3,-1
 198 380 l 1,4,-1
 480 380 l 1,5,-1
 480 301 l 1,6,-1
 198 301 l 1,7,-1
 198 0 l 1,8,-1
 112 0 l 1,9,-1
 112 680 l 1,0,-1
EndSplineSet
Validated: 1
EndChar
StartChar: G
Encoding: 71 71 8
Width: 600
GlyphClass: 1
Flags: W
LayerCount: 2
Fore
SplineSet
172 22 m 128,-1,1
 117 54 117 54 94 129.5 c 128,-1,2
 71 205 71 205 71 344 c 0,3,4
 71 480 71 480 93.5 554 c 128,-1,5
 116 628 116 628 169 659 c 128,-1,6
 222 690 222 690 320 690 c 0,7,8
 396 690 396 690 438.5 674.5 c 128,-1,9
 481 659 481 659 501.5 623 c 128,-1,10
 522 587 522 587 528 521 c 1,11,-1
 445 521 l 1,12,13
 438 573 438 573 412 592 c 128,-1,14
 386 611 386 611 321 611 c 256,15,16
 256 611 256 611 221 587 c 128,-1,17
 186 563 186 563 171.5 506 c 128,-1,18
 157 449 157 449 157 343 c 0,19,20
 157 235 157 235 172.5 176.5 c 128,-1,21
 188 118 188 118 224.5 93.5 c 128,-1,22
 261 69 261 69 329 69 c 0,23,24
 367 69 367 69 392 74.5 c 128,-1,25
 417 80 417 80 447 94 c 1,26,-1
 447 286 l 1,27,-1
 312 286 l 1,28,-1
 312 365 l 1,29,-1
 527 365 l 1,30,-1
 527 38 l 1,31,32
 471 10 471 10 429 0 c 128,-1,33
 387 -10 387 -10 329 -10 c 0,34,0
 227 -10 227 -10 172 22 c 128,-1,1
EndSplineSet
Validated: 1
EndChar
StartChar: H
Encoding: 72 72 9
Width: 600
GlyphClass: 1
Flags: W
LayerCount: 2
Fore
SplineSet
78 680 m 1,0,-1
 164 680 l 1,1,-1
 164 394 l 1,2,-1
 436 394 l 1,3,-1
 436 680 l 1,4,-1
 522 680 l 1,5,-1
 522 0 l 1,6,-1
 436 0 l 1,7,-1
 436 315 l 1,8,-1
 164 315 l 1,9,-1
 164 0 l 1,10,-1
 78 0 l 1,11,-1
 78 680 l 1,0,-1
EndSplineSet
Validated: 1
EndChar
StartChar: I
Encoding: 73 73 10
Width: 600
GlyphClass: 1
Flags: W
LayerCount: 2
Fore
SplineSet
129 79 m 1,0,-1
 257 79 l 1,1,-1
 257 601 l 1,2,-1
 136 601 l 1,3,-1
 136 680 l 1,4,-1
 464 680 l 1,5,-1
 464 601 l 1,6,-1
 343 601 l 1,7,-1
 343 79 l 1,8,-1
 470 79 l 1,9,-1
 470 0 l 1,10,-1
 129 0 l 1,11,-1
 129 79 l 1,0,-1
EndSplineSet
Validated: 1
EndChar
StartChar: J
Encoding: 74 74 11
Width: 600
GlyphClass: 1
Flags: W
LayerCount: 2
Fore
SplineSet
158 8 m 128,-1,1
 116 25 116 25 98.5 65 c 128,-1,2
 81 105 81 105 81 179 c 1,3,-1
 167 179 l 1,4,5
 168 135 168 135 178.5 112 c 128,-1,6
 189 89 189 89 211.5 79.5 c 128,-1,7
 234 70 234 70 275 70 c 0,8,9
 322 70 322 70 347 81 c 128,-1,10
 372 92 372 92 383 119.5 c 128,-1,11
 394 147 394 147 394 198 c 2,12,-1
 394 680 l 1,13,-1
 480 680 l 1,14,-1
 480 194 l 2,15,16
 480 114 480 114 461.5 70.5 c 128,-1,17
 443 27 443 27 400 9 c 128,-1,18
 357 -9 357 -9 278 -9 c 0,19,0
 200 -9 200 -9 158 8 c 128,-1,1
EndSplineSet
Validated: 1
EndChar
StartChar: K
Encoding: 75 75 12
Width: 600
GlyphClass: 1
Flags: W
LayerCount: 2
Fore
SplineSet
87 680 m 1,0,-1
 173 680 l 1,1,-1
 173 355 l 1,2,-1
 415 680 l 1,3,-1
 515 680 l 1,4,-1
 264 349 l 1,5,-1
 264 346 l 1,6,-1
 558 0 l 1,7,-1
 447 0 l 1,8,-1
 173 333 l 1,9,-1
 173 0 l 1,10,-1
 87 0 l 1,11,-1
 87 680 l 1,0,-1
EndSplineSet
Validated: 1
EndChar
StartChar: L
Encoding: 76 76 13
Width: 600
GlyphClass: 1
Flags: W
LayerCount: 2
Fore
SplineSet
116 680 m 1,0,-1
 202 680 l 1,1,-1
 202 80 l 1,2,-1
 532 80 l 1,3,-1
 532 1 l 1,4,-1
 116 1 l 1,5,-1
 116 680 l 1,0,-1
EndSplineSet
Validated: 1
EndChar
StartChar: M
Encoding: 77 77 14
Width: 600
GlyphClass: 1
Flags: W
LayerCount: 2
Fore
SplineSet
57 680 m 1,0,-1
 171 680 l 1,1,-1
 294 338 l 1,2,-1
 305 338 l 1,3,-1
 428 680 l 1,4,-1
 542 680 l 1,5,-1
 542 0 l 1,6,-1
 460 0 l 1,7,-1
 460 424 l 1,8,-1
 470 572 l 1,9,-1
 465 572 l 1,10,-1
 340 241 l 1,11,-1
 259 241 l 1,12,-1
 134 572 l 1,13,-1
 129 572 l 1,14,-1
 139 424 l 1,15,-1
 139 0 l 1,16,-1
 57 0 l 1,17,-1
 57 680 l 1,0,-1
EndSplineSet
Validated: 1
EndChar
StartChar: N
Encoding: 78 78 15
Width: 600
GlyphClass: 1
Flags: W
LayerCount: 2
Fore
SplineSet
73 680 m 1,0,-1
 174 680 l 1,1,-1
 450 118 l 1,2,-1
 455 118 l 1,3,-1
 442 256 l 1,4,-1
 442 680 l 1,5,-1
 526 680 l 1,6,-1
 526 0 l 1,7,-1
 424 0 l 1,8,-1
 149 562 l 1,9,-1
 144 562 l 1,10,-1
 157 424 l 1,11,-1
 157 0 l 1,12,-1
 73 0 l 1,13,-1
 73 680 l 1,0,-1
EndSplineSet
Validated: 1
EndChar
StartChar: O
Encoding: 79 79 16
Width: 600
GlyphClass: 1
Flags: W
LayerCount: 2
Fore
SplineSet
157 21.5 m 128,-1,1
 106 53 106 53 84.5 127.5 c 128,-1,2
 63 202 63 202 63 338 c 0,3,4
 63 476 63 476 84.5 551.5 c 128,-1,5
 106 627 106 627 156.5 658.5 c 128,-1,6
 207 690 207 690 300 690 c 0,7,8
 392 690 392 690 442.5 658 c 128,-1,9
 493 626 493 626 514.5 551 c 128,-1,10
 536 476 536 476 536 338 c 0,11,12
 536 202 536 202 514.5 127.5 c 128,-1,13
 493 53 493 53 442.5 21.5 c 128,-1,14
 392 -10 392 -10 300 -10 c 256,15,0
 208 -10 208 -10 157 21.5 c 128,-1,1
162.5 173.5 m 128,-1,17
 176 116 176 116 208 91.5 c 128,-1,18
 240 67 240 67 300 67 c 0,19,20
 359 67 359 67 391 91.5 c 128,-1,21
 423 116 423 116 436.5 173.5 c 128,-1,22
 450 231 450 231 450 338 c 0,23,24
 450 446 450 446 436.5 505 c 128,-1,25
 423 564 423 564 391 588.5 c 128,-1,26
 359 613 359 613 300 613 c 0,27,28
 240 613 240 613 208 588.5 c 128,-1,29
 176 564 176 564 162.5 505 c 128,-1,30
 149 446 149 446 149 338 c 0,31,16
 149 231 149 231 162.5 173.5 c 128,-1,17
EndSplineSet
Validated: 1
EndChar
StartChar: P
Encoding: 80 80 17
Width: 600
GlyphClass: 1
Flags: W
LayerCount: 2
Fore
SplineSet
240 683 m 2,0,1
 355 683 355 683 416 664 c 128,-1,2
 477 645 477 645 503 599 c 128,-1,3
 529 553 529 553 529 467 c 0,4,5
 529 387 529 387 506.5 342.5 c 128,-1,6
 484 298 484 298 431.5 279 c 128,-1,7
 379 260 379 260 283 260 c 2,8,-1
 195 260 l 1,9,-1
 195 0 l 1,10,-1
 109 0 l 1,11,-1
 109 680 l 1,12,-1
 240 683 l 2,0,1
274 339 m 2,13,14
 340 339 340 339 376.5 351 c 128,-1,15
 413 363 413 363 428.5 391.5 c 128,-1,16
 444 420 444 420 444 472 c 0,17,18
 444 525 444 525 427.5 553.5 c 128,-1,19
 411 582 411 582 371.5 593.5 c 128,-1,20
 332 605 332 605 257 605 c 2,21,-1
 195 605 l 1,22,-1
 195 339 l 1,23,-1
 274 339 l 2,13,14
EndSplineSet
Validated: 1
EndChar
StartChar: Q
Encoding: 81 81 18
Width: 600
GlyphClass: 1
Flags: W
LayerCount: 2
Fore
SplineSet
367 -5 m 1,0,1
 334 -10 334 -10 300 -10 c 0,2,3
 208 -10 208 -10 157 21.5 c 128,-1,4
 106 53 106 53 84.5 127.5 c 128,-1,5
 63 202 63 202 63 338 c 0,6,7
 63 476 63 476 84.5 551.5 c 128,-1,8
 106 627 106 627 156.5 658.5 c 128,-1,9
 207 690 207 690 300 690 c 0,10,11
 392 690 392 690 442.5 658 c 128,-1,12
 493 626 493 626 514.5 551 c 128,-1,13
 536 476 536 476 536 338 c 0,14,15
 536 199 536 199 514 124.5 c 128,-1,16
 492 50 492 50 438 19 c 1,17,-1
 525 -97 l 1,18,-1
 423 -97 l 1,19,-1
 367 -5 l 1,0,1
162.5 173.5 m 128,-1,21
 176 116 176 116 208 91.5 c 128,-1,22
 240 67 240 67 300 67 c 0,23,24
 312 67 312 67 318 68 c 1,25,-1
 240 184 l 1,26,-1
 321 184 l 1,27,-1
 388 89 l 1,28,29
 422 113 422 113 436 171.5 c 128,-1,30
 450 230 450 230 450 338 c 256,31,32
 450 446 450 446 436.5 505 c 128,-1,33
 423 564 423 564 391 588.5 c 128,-1,34
 359 613 359 613 300 613 c 0,35,36
 240 613 240 613 208 588.5 c 128,-1,37
 176 564 176 564 162.5 505 c 128,-1,38
 149 446 149 446 149 338 c 0,39,20
 149 231 149 231 162.5 173.5 c 128,-1,21
EndSplineSet
Validated: 1
EndChar
StartChar: R
Encoding: 82 82 19
Width: 600
GlyphClass: 1
Flags: W
LayerCount: 2
Fore
SplineSet
90 680 m 1,0,-1
 190 683 l 1,1,-1
 235 684 l 2,2,3
 346 684 346 684 403.5 664.5 c 128,-1,4
 461 645 461 645 483 602.5 c 128,-1,5
 505 560 505 560 505 482 c 0,6,7
 505 406 505 406 477.5 370 c 128,-1,8
 450 334 450 334 383 326 c 1,9,-1
 383 320 l 1,10,11
 429 312 429 312 450 286.5 c 128,-1,12
 471 261 471 261 488 198 c 2,13,-1
 540 0 l 1,14,-1
 445 0 l 1,15,-1
 401 198 l 2,16,17
 389 253 389 253 359 273 c 128,-1,18
 329 293 329 293 259 293 c 2,19,-1
 176 293 l 1,20,-1
 176 0 l 1,21,-1
 90 0 l 1,22,-1
 90 680 l 1,0,-1
323 373 m 2,23,24
 379 374 379 374 400 400 c 128,-1,25
 421 426 421 426 421 492 c 0,26,27
 421 534 421 534 412.5 555.5 c 128,-1,28
 404 577 404 577 382.5 587.5 c 128,-1,29
 361 598 361 598 318 603 c 0,30,31
 285 607 285 607 255 607 c 0,32,33
 221 607 221 607 176 603 c 1,34,-1
 176 372 l 1,35,-1
 323 373 l 2,23,24
EndSplineSet
Validated: 1
EndChar
StartChar: S
Encoding: 83 83 20
Width: 600
GlyphClass: 1
Flags: W
LayerCount: 2
Fore
SplineSet
158 9 m 128,-1,1
 109 25 109 25 88.5 64.5 c 128,-1,2
 68 104 68 104 68 178 c 1,3,-1
 155 178 l 1,4,5
 159 133 159 133 173.5 110 c 128,-1,6
 188 87 188 87 219 78 c 128,-1,7
 250 69 250 69 310 69 c 0,8,9
 363 69 363 69 393 77.5 c 128,-1,10
 423 86 423 86 436 107 c 128,-1,11
 449 128 449 128 449 168 c 0,12,13
 449 210 449 210 433 236 c 128,-1,14
 417 262 417 262 379 282.5 c 128,-1,15
 341 303 341 303 267 326 c 0,16,17
 188 351 188 351 147.5 375.5 c 128,-1,18
 107 400 107 400 90 434.5 c 128,-1,19
 73 469 73 469 73 526 c 0,20,21
 73 591 73 591 93 625.5 c 128,-1,22
 113 660 113 660 160.5 674.5 c 128,-1,23
 208 689 208 689 296 689 c 0,24,25
 382 689 382 689 428 675 c 128,-1,26
 474 661 474 661 494.5 627 c 128,-1,27
 515 593 515 593 519 528 c 1,28,-1
 433 528 l 1,29,30
 429 563 429 563 416 581 c 128,-1,31
 403 599 403 599 375.5 606 c 128,-1,32
 348 613 348 613 298 613 c 0,33,34
 242 613 242 613 211.5 604.5 c 128,-1,35
 181 596 181 596 168.5 577.5 c 128,-1,36
 156 559 156 559 156 525 c 256,37,38
 156 491 156 491 172 469 c 128,-1,39
 188 447 188 447 226 428.5 c 128,-1,40
 264 410 264 410 341 384 c 0,41,42
 418 357 418 357 458.5 331 c 128,-1,43
 499 305 499 305 515.5 267.5 c 128,-1,44
 532 230 532 230 532 167 c 0,45,46
 532 98 532 98 511.5 61 c 128,-1,47
 491 24 491 24 442 8.5 c 128,-1,48
 393 -7 393 -7 300 -7 c 256,49,0
 207 -7 207 -7 158 9 c 128,-1,1
EndSplineSet
Validated: 1
EndChar
StartChar: T
Encoding: 84 84 21
Width: 600
GlyphClass: 1
Flags: W
LayerCount: 2
Fore
SplineSet
256 601 m 1,0,-1
 72 601 l 1,1,-1
 72 680 l 1,2,-1
 527 680 l 1,3,-1
 527 601 l 1,4,-1
 342 601 l 1,5,-1
 342 0 l 1,6,-1
 256 0 l 1,7,-1
 256 601 l 1,0,-1
EndSplineSet
Validated: 1
EndChar
StartChar: U
Encoding: 85 85 22
Width: 600
GlyphClass: 1
Flags: W
LayerCount: 2
Fore
SplineSet
168.5 11 m 128,-1,1
 121 31 121 31 100.5 78.5 c 128,-1,2
 80 126 80 126 80 214 c 2,3,-1
 80 680 l 1,4,-1
 166 680 l 1,5,-1
 166 219 l 2,6,7
 166 160 166 160 178.5 128 c 128,-1,8
 191 96 191 96 220.5 83 c 128,-1,9
 250 70 250 70 304 70 c 0,10,11
 355 70 355 70 382.5 83 c 128,-1,12
 410 96 410 96 421.5 127.5 c 128,-1,13
 433 159 433 159 433 218 c 2,14,-1
 433 680 l 1,15,-1
 519 680 l 1,16,-1
 519 215 l 2,17,18
 519 127 519 127 499.5 79 c 128,-1,19
 480 31 480 31 434 11 c 128,-1,20
 388 -9 388 -9 304 -9 c 0,21,0
 216 -9 216 -9 168.5 11 c 128,-1,1
EndSplineSet
Validated: 1
EndChar
StartChar: V
Encoding: 86 86 23
Width: 600
GlyphClass: 1
Flags: W
LayerCount: 2
Fore
SplineSet
37 680 m 1,0,-1
 123 680 l 1,1,-1
 295 95 l 1,2,-1
 304 95 l 1,3,-1
 476 680 l 1,4,-1
 562 680 l 1,5,-1
 356 0 l 1,6,-1
 243 0 l 1,7,-1
 37 680 l 1,0,-1
EndSplineSet
Validated: 1
EndChar
StartChar: W
Encoding: 87 87 24
Width: 600
GlyphClass: 1
Flags: W
LayerCount: 2
Fore
SplineSet
17 680 m 1,0,-1
 98 680 l 1,1,-1
 158 105 l 1,2,-1
 162 105 l 1,3,-1
 168 199 l 1,4,-1
 250 680 l 1,5,-1
 349 680 l 1,6,-1
 431 199 l 1,7,-1
 438 105 l 1,8,-1
 442 105 l 1,9,-1
 501 680 l 1,10,-1
 582 680 l 1,11,-1
 492 0 l 1,12,-1
 396 0 l 1,13,-1
 302 612 l 1,14,-1
 298 612 l 1,15,-1
 204 0 l 1,16,-1
 108 0 l 1,17,-1
 17 680 l 1,0,-1
EndSplineSet
Validated: 1
EndChar
StartChar: X
Encoding: 88 88 25
Width: 600
GlyphClass: 1
Flags: W
LayerCount: 2
Fore
SplineSet
254 356 m 1,0,-1
 59 682 l 1,1,-1
 151 682 l 1,2,-1
 297 429 l 1,3,-1
 303 429 l 1,4,-1
 445 682 l 1,5,-1
 542 682 l 1,6,-1
 347 356 l 1,7,-1
 553 0 l 1,8,-1
 457 0 l 1,9,-1
 303 280 l 1,10,-1
 299 280 l 1,11,-1
 142 0 l 1,12,-1
 47 0 l 1,13,-1
 254 356 l 1,0,-1
EndSplineSet
Validated: 1
EndChar
StartChar: Y
Encoding: 89 89 26
Width: 600
GlyphClass: 1
Flags: W
LayerCount: 2
Fore
SplineSet
256 277 m 1,0,-1
 61 682 l 1,1,-1
 154 682 l 1,2,-1
 297 368 l 1,3,-1
 302 368 l 1,4,-1
 446 682 l 1,5,-1
 538 682 l 1,6,-1
 342 277 l 1,7,-1
 342 0 l 1,8,-1
 256 0 l 1,9,-1
 256 277 l 1,0,-1
EndSplineSet
Validated: 1
EndChar
StartChar: Z
Encoding: 90 90 27
Width: 600
GlyphClass: 1
Flags: W
LayerCount: 2
Fore
SplineSet
80 69 m 1,0,-1
 420 601 l 1,1,-1
 97 601 l 1,2,-1
 97 680 l 1,3,-1
 519 680 l 1,4,-1
 519 611 l 1,5,-1
 177 79 l 1,6,-1
 519 79 l 1,7,-1
 519 0 l 1,8,-1
 80 0 l 1,9,-1
 80 69 l 1,0,-1
EndSplineSet
Validated: 1
EndChar
StartChar: bracketleft
Encoding: 91 91 80
Width: 600
GlyphClass: 1
Flags: W
LayerCount: 2
Fore
SplineSet
237 768 m 1,0,-1
 480 768 l 1,1,-1
 480 695 l 1,2,-1
 319 695 l 1,3,-1
 319 -41 l 1,4,-1
 480 -41 l 1,5,-1
 480 -114 l 1,6,-1
 237 -114 l 1,7,-1
 237 768 l 1,0,-1
EndSplineSet
Validated: 1
EndChar
StartChar: backslash
Encoding: 92 92 73
Width: 600
GlyphClass: 1
Flags: W
LayerCount: 2
Fore
SplineSet
516 -114 m 1,0,-1
 432 -114 l 1,1,-1
 83 768 l 1,2,-1
 168 768 l 1,3,-1
 516 -114 l 1,0,-1
EndSplineSet
Validated: 1
EndChar
StartChar: bracketright
Encoding: 93 93 81
Width: 600
GlyphClass: 1
Flags: W
LayerCount: 2
Fore
SplineSet
120 -114 m 1,0,-1
 120 -41 l 1,1,-1
 281 -41 l 1,2,-1
 281 695 l 1,3,-1
 120 695 l 1,4,-1
 120 768 l 1,5,-1
 363 768 l 1,6,-1
 363 -114 l 1,7,-1
 120 -114 l 1,0,-1
EndSplineSet
Validated: 1
EndChar
StartChar: asciicircum
Encoding: 94 94 93
Width: 600
GlyphClass: 1
Flags: W
LayerCount: 2
Fore
SplineSet
246 680 m 1,0,-1
 353 680 l 1,1,-1
 491 423 l 1,2,-1
 401 423 l 1,3,-1
 304 601 l 1,4,-1
 295 601 l 1,5,-1
 198 423 l 1,6,-1
 108 423 l 1,7,-1
 246 680 l 1,0,-1
EndSplineSet
Validated: 1
EndChar
StartChar: underscore
Encoding: 95 95 75
Width: 600
GlyphClass: 1
Flags: W
LayerCount: 2
Fore
SplineSet
60 -88 m 1,0,-1
 540 -88 l 1,1,-1
 540 -170 l 1,2,-1
 60 -170 l 1,3,-1
 60 -88 l 1,0,-1
EndSplineSet
Validated: 1
EndChar
StartChar: grave
Encoding: 96 96 95
Width: 600
GlyphClass: 1
Flags: W
LayerCount: 2
Fore
SplineSet
167 780 m 1,0,-1
 284 780 l 1,1,-1
 422 603 l 1,2,-1
 322 603 l 1,3,-1
 167 780 l 1,0,-1
EndSplineSet
Validated: 1
EndChar
StartChar: a
Encoding: 97 97 28
Width: 600
GlyphClass: 1
Flags: W
LayerCount: 2
Fore
SplineSet
150.5 4 m 128,-1,1
 116 18 116 18 101.5 51 c 128,-1,2
 87 84 87 84 87 145 c 0,3,4
 87 217 87 217 108 256.5 c 128,-1,5
 129 296 129 296 178.5 312.5 c 128,-1,6
 228 329 228 329 319 329 c 2,7,-1
 413 329 l 1,8,-1
 413 354 l 2,9,10
 413 396 413 396 402.5 419 c 128,-1,11
 392 442 392 442 366.5 452 c 128,-1,12
 341 462 341 462 294 462 c 0,13,14
 233 462 233 462 211 446.5 c 128,-1,15
 189 431 189 431 187 387 c 1,16,-1
 103 387 l 1,17,18
 103 445 103 445 120 476.5 c 128,-1,19
 137 508 137 508 178 521.5 c 128,-1,20
 219 535 219 535 294 535 c 0,21,22
 372 535 372 535 414.5 519 c 128,-1,23
 457 503 457 503 474.5 464 c 128,-1,24
 492 425 492 425 492 354 c 2,25,-1
 492 0 l 1,26,-1
 416 0 l 1,27,-1
 416 67 l 1,28,-1
 409 67 l 1,29,30
 383 23 383 23 349.5 6.5 c 128,-1,31
 316 -10 316 -10 249 -10 c 0,32,0
 185 -10 185 -10 150.5 4 c 128,-1,1
192 83.5 m 128,-1,34
 213 65 213 65 270 65 c 0,35,36
 326 65 326 65 356 82.5 c 128,-1,37
 386 100 386 100 399 141 c 128,-1,38
 412 182 412 182 412 258 c 1,39,-1
 299 257 l 2,40,41
 249 256 249 256 221.5 246.5 c 128,-1,42
 194 237 194 237 182.5 215.5 c 128,-1,43
 171 194 171 194 171 154 c 0,44,33
 171 102 171 102 192 83.5 c 128,-1,34
EndSplineSet
Validated: 1
EndChar
StartChar: b
Encoding: 98 98 29
Width: 600
GlyphClass: 1
Flags: W
LayerCount: 2
Fore
SplineSet
240.5 4 m 128,-1,1
 211 18 211 18 182 57 c 1,2,-1
 175 57 l 1,3,-1
 175 0 l 1,4,-1
 92 0 l 1,5,-1
 93 728 l 1,6,-1
 176 728 l 1,7,-1
 175 467 l 1,8,-1
 183 467 l 1,9,10
 207 506 207 506 236.5 520 c 128,-1,11
 266 534 266 534 325 534 c 0,12,13
 406 534 406 534 450 509.5 c 128,-1,14
 494 485 494 485 512.5 427.5 c 128,-1,15
 531 370 531 370 531 263 c 0,16,17
 531 155 531 155 512 97 c 128,-1,18
 493 39 493 39 448.5 14.5 c 128,-1,19
 404 -10 404 -10 322 -10 c 0,20,0
 270 -10 270 -10 240.5 4 c 128,-1,1
185 142.5 m 128,-1,22
 197 100 197 100 224.5 82.5 c 128,-1,23
 252 65 252 65 304 65 c 0,24,25
 360 65 360 65 390 83 c 128,-1,26
 420 101 420 101 433 143 c 128,-1,27
 446 185 446 185 446 263 c 0,28,29
 446 340 446 340 433 382 c 128,-1,30
 420 424 420 424 390 441.5 c 128,-1,31
 360 459 360 459 304 459 c 0,32,33
 252 459 252 459 224.5 441.5 c 128,-1,34
 197 424 197 424 185 382 c 128,-1,35
 173 340 173 340 173 263 c 0,36,21
 173 185 173 185 185 142.5 c 128,-1,22
EndSplineSet
Validated: 1
EndChar
StartChar: c
Encoding: 99 99 30
Width: 600
GlyphClass: 1
Flags: W
LayerCount: 2
Fore
SplineSet
178.5 14.5 m 128,-1,1
 130 39 130 39 109.5 96.5 c 128,-1,2
 89 154 89 154 89 261 c 0,3,4
 89 369 89 369 109.5 427.5 c 128,-1,5
 130 486 130 486 178 510.5 c 128,-1,6
 226 535 226 535 314 535 c 0,7,8
 388 535 388 535 429 520 c 128,-1,9
 470 505 470 505 489 469.5 c 128,-1,10
 508 434 508 434 512 369 c 1,11,-1
 429 369 l 1,12,13
 419 421 419 421 396 440 c 128,-1,14
 373 459 373 459 320 459 c 0,15,16
 262 459 262 459 231 441 c 128,-1,17
 200 423 200 423 186.5 380.5 c 128,-1,18
 173 338 173 338 173 259 c 0,19,20
 173 183 173 183 186.5 142 c 128,-1,21
 200 101 200 101 231.5 83.5 c 128,-1,22
 263 66 263 66 321 66 c 0,23,24
 373 66 373 66 395.5 82.5 c 128,-1,25
 418 99 418 99 429 145 c 1,26,-1
 512 145 l 1,27,28
 508 84 508 84 489 51 c 128,-1,29
 470 18 470 18 429.5 4 c 128,-1,30
 389 -10 389 -10 316 -10 c 0,31,0
 227 -10 227 -10 178.5 14.5 c 128,-1,1
EndSplineSet
Validated: 1
EndChar
StartChar: d
Encoding: 100 100 31
Width: 600
GlyphClass: 1
Flags: W
LayerCount: 2
Fore
SplineSet
149.5 14.5 m 128,-1,1
 105 39 105 39 86 97 c 128,-1,2
 67 155 67 155 67 263 c 0,3,4
 67 370 67 370 85.5 427.5 c 128,-1,5
 104 485 104 485 148 509.5 c 128,-1,6
 192 534 192 534 273 534 c 0,7,8
 332 534 332 534 362 520 c 128,-1,9
 392 506 392 506 415 467 c 1,10,-1
 423 467 l 1,11,-1
 423 728 l 1,12,-1
 506 728 l 1,13,-1
 506 0 l 1,14,-1
 423 0 l 1,15,-1
 423 57 l 1,16,-1
 416 57 l 1,17,18
 388 18 388 18 358.5 4 c 128,-1,19
 329 -10 329 -10 276 -10 c 0,20,0
 194 -10 194 -10 149.5 14.5 c 128,-1,1
165 143 m 128,-1,22
 178 101 178 101 208 83 c 128,-1,23
 238 65 238 65 294 65 c 0,24,25
 346 65 346 65 373.5 82.5 c 128,-1,26
 401 100 401 100 413 142.5 c 128,-1,27
 425 185 425 185 425 263 c 0,28,29
 425 340 425 340 413 382 c 128,-1,30
 401 424 401 424 373.5 441.5 c 128,-1,31
 346 459 346 459 294 459 c 0,32,33
 238 459 238 459 208 441.5 c 128,-1,34
 178 424 178 424 165 382 c 128,-1,35
 152 340 152 340 152 263 c 0,36,21
 152 185 152 185 165 143 c 128,-1,22
EndSplineSet
Validated: 1
EndChar
StartChar: e
Encoding: 101 101 32
Width: 600
GlyphClass: 1
Flags: W
LayerCount: 2
Fore
SplineSet
169.5 14 m 128,-1,1
 122 38 122 38 102.5 96 c 128,-1,2
 83 154 83 154 83 264 c 0,3,4
 83 371 83 371 103 429 c 128,-1,5
 123 487 123 487 169.5 510.5 c 128,-1,6
 216 534 216 534 299 534 c 0,7,8
 389 534 389 534 434.5 507.5 c 128,-1,9
 480 481 480 481 497 417 c 128,-1,10
 514 353 514 353 512 228 c 1,11,-1
 167 228 l 1,12,13
 170 162 170 162 183 127 c 128,-1,14
 196 92 196 92 224.5 78 c 128,-1,15
 253 64 253 64 306 64 c 0,16,17
 356 64 356 64 379 78.5 c 128,-1,18
 402 93 402 93 415 135 c 1,19,-1
 502 135 l 1,20,21
 491 77 491 77 470.5 46 c 128,-1,22
 450 15 450 15 412 2.5 c 128,-1,23
 374 -10 374 -10 307 -10 c 0,24,0
 217 -10 217 -10 169.5 14 c 128,-1,1
432 301 m 1,25,26
 430 365 430 365 417.5 398.5 c 128,-1,27
 405 432 405 432 377.5 446 c 128,-1,28
 350 460 350 460 299 460 c 0,29,30
 251 460 251 460 224.5 446 c 128,-1,31
 198 432 198 432 185.5 398.5 c 128,-1,32
 173 365 173 365 168 301 c 1,33,-1
 432 301 l 1,25,26
EndSplineSet
Validated: 33
EndChar
StartChar: f
Encoding: 102 102 33
Width: 600
GlyphClass: 1
Flags: W
LayerCount: 2
Fore
SplineSet
232 443 m 1,0,-1
 102 443 l 1,1,-1
 78 522 l 1,2,-1
 232 522 l 1,3,-1
 232 594 l 2,4,5
 232 654 232 654 250.5 687.5 c 128,-1,6
 269 721 269 721 314 735.5 c 128,-1,7
 359 750 359 750 440 750 c 0,8,9
 458 750 458 750 504 748 c 1,10,-1
 504 674 l 1,11,12
 487 675 487 675 457 675 c 0,13,14
 401 675 401 675 370 667 c 128,-1,15
 339 659 339 659 326 640.5 c 128,-1,16
 313 622 313 622 313 590 c 2,17,-1
 313 522 l 1,18,-1
 494 522 l 1,19,-1
 494 443 l 1,20,-1
 313 443 l 1,21,-1
 313 0 l 1,22,-1
 232 0 l 1,23,-1
 232 443 l 1,0,-1
EndSplineSet
Validated: 1
EndChar
StartChar: g
Encoding: 103 103 34
Width: 600
GlyphClass: 1
Flags: W
LayerCount: 2
Fore
SplineSet
172.5 -201 m 128,-1,1
 130 -187 130 -187 110 -154.5 c 128,-1,2
 90 -122 90 -122 86 -62 c 1,3,-1
 170 -62 l 1,4,5
 171 -94 171 -94 182 -111.5 c 128,-1,6
 193 -129 193 -129 219.5 -136.5 c 128,-1,7
 246 -144 246 -144 294 -144 c 0,8,9
 344 -144 344 -144 371.5 -131.5 c 128,-1,10
 399 -119 399 -119 410.5 -88.5 c 128,-1,11
 422 -58 422 -58 423 -2 c 2,12,-1
 423 76 l 1,13,-1
 416 76 l 1,14,15
 401 31 401 31 372.5 14 c 128,-1,16
 344 -3 344 -3 280 -3 c 0,17,18
 196 -3 196 -3 150.5 21 c 128,-1,19
 105 45 105 45 86 101.5 c 128,-1,20
 67 158 67 158 67 262 c 0,21,22
 67 370 67 370 86 428 c 128,-1,23
 105 486 105 486 151 510.5 c 128,-1,24
 197 535 197 535 281 535 c 0,25,26
 344 535 344 535 373.5 519 c 128,-1,27
 403 503 403 503 418 457 c 1,28,-1
 426 457 l 1,29,-1
 426 522 l 1,30,-1
 505 522 l 1,31,-1
 505 -13 l 2,32,33
 504 -93 504 -93 485 -136 c 128,-1,34
 466 -179 466 -179 421 -197 c 128,-1,35
 376 -215 376 -215 293 -215 c 0,36,0
 215 -215 215 -215 172.5 -201 c 128,-1,1
163 146 m 128,-1,38
 175 105 175 105 204 88 c 128,-1,39
 233 71 233 71 287 71 c 256,40,41
 341 71 341 71 370 88 c 128,-1,42
 399 105 399 105 411 146 c 128,-1,43
 423 187 423 187 423 262 c 0,44,45
 423 341 423 341 411 383 c 128,-1,46
 399 425 399 425 370 443 c 128,-1,47
 341 461 341 461 287 461 c 256,48,49
 233 461 233 461 204 443 c 128,-1,50
 175 425 175 425 163 383 c 128,-1,51
 151 341 151 341 151 262 c 0,52,37
 151 187 151 187 163 146 c 128,-1,38
EndSplineSet
Validated: 1
EndChar
StartChar: h
Encoding: 104 104 35
Width: 600
GlyphClass: 1
Flags: W
LayerCount: 2
Fore
SplineSet
91 728 m 1,0,-1
 175 728 l 1,1,-1
 175 445 l 1,2,-1
 182 445 l 1,3,4
 205 497 205 497 237.5 515.5 c 128,-1,5
 270 534 270 534 338 534 c 0,6,7
 405 534 405 534 441 516 c 128,-1,8
 477 498 477 498 492.5 456 c 128,-1,9
 508 414 508 414 508 335 c 2,10,-1
 508 0 l 1,11,-1
 425 0 l 1,12,-1
 425 337 l 2,13,14
 425 385 425 385 414.5 411 c 128,-1,15
 404 437 404 437 380 448 c 128,-1,16
 356 459 356 459 312 459 c 0,17,18
 258 459 258 459 229 442 c 128,-1,19
 200 425 200 425 187.5 385 c 128,-1,20
 175 345 175 345 175 271 c 2,21,-1
 175 0 l 1,22,-1
 91 0 l 1,23,-1
 91 728 l 1,0,-1
EndSplineSet
Validated: 1
EndChar
StartChar: i
Encoding: 105 105 36
Width: 600
GlyphClass: 1
Flags: W
LayerCount: 2
Fore
SplineSet
250 728 m 1,0,-1
 365 728 l 1,1,-1
 365 614 l 1,2,-1
 250 614 l 1,3,-1
 250 728 l 1,0,-1
113 74 m 1,4,-1
 282 74 l 1,5,-1
 282 449 l 1,6,-1
 123 449 l 1,7,-1
 123 522 l 1,8,-1
 364 522 l 1,9,-1
 364 74 l 1,10,-1
 526 74 l 1,11,-1
 526 1 l 1,12,-1
 113 1 l 1,13,-1
 113 74 l 1,4,-1
EndSplineSet
Validated: 1
EndChar
StartChar: j
Encoding: 106 106 37
Width: 600
GlyphClass: 1
Flags: W
LayerCount: 2
Fore
SplineSet
281 728 m 1,0,-1
 396 728 l 1,1,-1
 396 614 l 1,2,-1
 281 614 l 1,3,-1
 281 728 l 1,0,-1
126 -146 m 1,4,5
 204 -134 204 -134 242 -121.5 c 128,-1,6
 280 -109 280 -109 294.5 -90.5 c 128,-1,7
 309 -72 309 -72 309 -38 c 2,8,-1
 309 448 l 1,9,-1
 159 448 l 1,10,-1
 159 522 l 1,11,-1
 391 522 l 1,12,-1
 391 -43 l 2,13,14
 391 -109 391 -109 370 -142.5 c 128,-1,15
 349 -176 349 -176 294 -193 c 128,-1,16
 239 -210 239 -210 126 -220 c 1,17,-1
 126 -146 l 1,4,5
EndSplineSet
Validated: 1
EndChar
StartChar: k
Encoding: 107 107 38
Width: 600
GlyphClass: 1
Flags: W
LayerCount: 2
Fore
SplineSet
206 279 m 1,0,-1
 206 0 l 1,1,-1
 124 0 l 1,2,-1
 124 728 l 1,3,-1
 206 728 l 1,4,-1
 206 294 l 1,5,-1
 421 522 l 1,6,-1
 529 522 l 1,7,-1
 306 289 l 1,8,-1
 562 0 l 1,9,-1
 450 0 l 1,10,-1
 206 279 l 1,0,-1
EndSplineSet
Validated: 1
EndChar
StartChar: l
Encoding: 108 108 39
Width: 600
GlyphClass: 1
Flags: W
LayerCount: 2
Fore
SplineSet
90 74 m 1,0,-1
 268 74 l 1,1,-1
 268 653 l 1,2,-1
 100 653 l 1,3,-1
 100 728 l 1,4,-1
 349 728 l 1,5,-1
 349 74 l 1,6,-1
 515 74 l 1,7,-1
 515 0 l 1,8,-1
 90 0 l 1,9,-1
 90 74 l 1,0,-1
EndSplineSet
Validated: 1
EndChar
StartChar: m
Encoding: 109 109 40
Width: 600
GlyphClass: 1
Flags: W
LayerCount: 2
Fore
SplineSet
46 522 m 1,0,-1
 121 522 l 1,1,-1
 121 455 l 1,2,-1
 128 455 l 1,3,4
 145 500 145 500 166 517 c 128,-1,5
 187 534 187 534 226 534 c 0,6,7
 271 534 271 534 295 516.5 c 128,-1,8
 319 499 319 499 330 455 c 1,9,-1
 335 455 l 1,10,11
 353 501 353 501 375.5 517.5 c 128,-1,12
 398 534 398 534 440 534 c 0,13,14
 484 534 484 534 508.5 516 c 128,-1,15
 533 498 533 498 543 456 c 128,-1,16
 553 414 553 414 553 338 c 2,17,-1
 553 0 l 1,18,-1
 474 0 l 1,19,-1
 474 319 l 2,20,21
 474 373 474 373 468.5 402.5 c 128,-1,22
 463 432 463 432 448.5 445 c 128,-1,23
 434 458 434 458 408 458 c 0,24,25
 381 458 381 458 366 444 c 128,-1,26
 351 430 351 430 345 397.5 c 128,-1,27
 339 365 339 365 339 304 c 2,28,-1
 339 0 l 1,29,-1
 261 0 l 1,30,-1
 263 318 l 2,31,32
 264 397 264 397 247.5 427.5 c 128,-1,33
 231 458 231 458 193 458 c 0,34,35
 166 458 166 458 151.5 443.5 c 128,-1,36
 137 429 137 429 130.5 394.5 c 128,-1,37
 124 360 124 360 124 298 c 2,38,-1
 124 0 l 1,39,-1
 46 0 l 1,40,-1
 46 522 l 1,0,-1
EndSplineSet
Validated: 33
EndChar
StartChar: n
Encoding: 110 110 41
Width: 600
GlyphClass: 1
Flags: W
LayerCount: 2
Fore
SplineSet
91 522 m 1,0,-1
 175 522 l 1,1,-1
 175 446 l 1,2,-1
 182 446 l 1,3,4
 204 498 204 498 237.5 516.5 c 128,-1,5
 271 535 271 535 339 535 c 0,6,7
 405 535 405 535 441 517 c 128,-1,8
 477 499 477 499 492.5 456.5 c 128,-1,9
 508 414 508 414 508 336 c 2,10,-1
 508 0 l 1,11,-1
 425 0 l 1,12,-1
 425 338 l 2,13,14
 425 385 425 385 414.5 411 c 128,-1,15
 404 437 404 437 380.5 447.5 c 128,-1,16
 357 458 357 458 313 458 c 0,17,18
 259 458 259 458 229.5 441 c 128,-1,19
 200 424 200 424 187.5 384.5 c 128,-1,20
 175 345 175 345 175 272 c 2,21,-1
 175 0 l 1,22,-1
 91 0 l 1,23,-1
 91 522 l 1,0,-1
EndSplineSet
Validated: 1
EndChar
StartChar: o
Encoding: 111 111 42
Width: 600
GlyphClass: 1
Flags: W
LayerCount: 2
Fore
SplineSet
163.5 14.5 m 128,-1,1
 116 39 116 39 96 97 c 128,-1,2
 76 155 76 155 76 262 c 0,3,4
 76 370 76 370 96 428 c 128,-1,5
 116 486 116 486 163.5 510.5 c 128,-1,6
 211 535 211 535 299 535 c 256,7,8
 387 535 387 535 435 510.5 c 128,-1,9
 483 486 483 486 503 427.5 c 128,-1,10
 523 369 523 369 523 262 c 256,11,12
 523 155 523 155 503 97 c 128,-1,13
 483 39 483 39 435 14.5 c 128,-1,14
 387 -10 387 -10 299 -10 c 256,15,0
 211 -10 211 -10 163.5 14.5 c 128,-1,1
172.5 142 m 128,-1,17
 185 100 185 100 214.5 82.5 c 128,-1,18
 244 65 244 65 299 65 c 256,19,20
 354 65 354 65 384 82.5 c 128,-1,21
 414 100 414 100 426.5 142 c 128,-1,22
 439 184 439 184 439 262 c 0,23,24
 439 341 439 341 426.5 383 c 128,-1,25
 414 425 414 425 384 443 c 128,-1,26
 354 461 354 461 299 461 c 256,27,28
 244 461 244 461 214.5 443 c 128,-1,29
 185 425 185 425 172.5 383 c 128,-1,30
 160 341 160 341 160 262 c 0,31,16
 160 184 160 184 172.5 142 c 128,-1,17
EndSplineSet
Validated: 1
EndChar
StartChar: p
Encoding: 112 112 43
Width: 600
GlyphClass: 1
Flags: W
LayerCount: 2
Fore
SplineSet
91 522 m 1,0,-1
 174 522 l 1,1,-1
 174 468 l 1,2,-1
 181 468 l 1,3,4
 210 507 210 507 239.5 521 c 128,-1,5
 269 535 269 535 321 535 c 0,6,7
 403 535 403 535 447.5 510.5 c 128,-1,8
 492 486 492 486 511 428 c 128,-1,9
 530 370 530 370 530 262 c 0,10,11
 530 155 530 155 511.5 97 c 128,-1,12
 493 39 493 39 449 14.5 c 128,-1,13
 405 -10 405 -10 323 -10 c 0,14,15
 265 -10 265 -10 235.5 4 c 128,-1,16
 206 18 206 18 182 57 c 1,17,-1
 174 57 l 1,18,-1
 174 -215 l 1,19,-1
 91 -215 l 1,20,-1
 91 522 l 1,0,-1
184 142 m 128,-1,22
 196 100 196 100 223.5 82.5 c 128,-1,23
 251 65 251 65 303 65 c 0,24,25
 359 65 359 65 389 82.5 c 128,-1,26
 419 100 419 100 432 142.5 c 128,-1,27
 445 185 445 185 445 262 c 0,28,29
 445 340 445 340 432 382 c 128,-1,30
 419 424 419 424 389 442 c 128,-1,31
 359 460 359 460 303 460 c 0,32,33
 251 460 251 460 223.5 442.5 c 128,-1,34
 196 425 196 425 184 382.5 c 128,-1,35
 172 340 172 340 172 262 c 256,36,21
 172 184 172 184 184 142 c 128,-1,22
EndSplineSet
Validated: 1
EndChar
StartChar: q
Encoding: 113 113 44
Width: 600
GlyphClass: 1
Flags: W
LayerCount: 2
Fore
SplineSet
424 57 m 1,0,-1
 416 57 l 1,1,2
 392 18 392 18 362 4 c 128,-1,3
 332 -10 332 -10 274 -10 c 0,4,5
 193 -10 193 -10 149 14.5 c 128,-1,6
 105 39 105 39 86.5 97 c 128,-1,7
 68 155 68 155 68 262 c 0,8,9
 68 370 68 370 87 428 c 128,-1,10
 106 486 106 486 150.5 510.5 c 128,-1,11
 195 535 195 535 277 535 c 0,12,13
 329 535 329 535 358.5 521 c 128,-1,14
 388 507 388 507 417 468 c 1,15,-1
 424 468 l 1,16,-1
 424 522 l 1,17,-1
 507 522 l 1,18,-1
 507 -215 l 1,19,-1
 424 -215 l 1,20,-1
 424 57 l 1,0,-1
166 142.5 m 128,-1,22
 179 100 179 100 209 82.5 c 128,-1,23
 239 65 239 65 295 65 c 0,24,25
 347 65 347 65 374.5 82.5 c 128,-1,26
 402 100 402 100 414 142 c 128,-1,27
 426 184 426 184 426 262 c 256,28,29
 426 340 426 340 414 382.5 c 128,-1,30
 402 425 402 425 374.5 442.5 c 128,-1,31
 347 460 347 460 295 460 c 0,32,33
 239 460 239 460 209 442 c 128,-1,34
 179 424 179 424 166 382 c 128,-1,35
 153 340 153 340 153 262 c 0,36,21
 153 185 153 185 166 142.5 c 128,-1,22
EndSplineSet
Validated: 1
EndChar
StartChar: r
Encoding: 114 114 45
Width: 600
GlyphClass: 1
Flags: W
LayerCount: 2
Fore
SplineSet
167 522 m 1,0,-1
 247 522 l 1,1,-1
 244 399 l 1,2,-1
 252 399 l 1,3,4
 280 463 280 463 296.5 487.5 c 128,-1,5
 313 512 313 512 332 518 c 128,-1,6
 351 524 351 524 397 525 c 2,7,-1
 441 526 l 2,8,9
 466 526 466 526 496 524 c 1,10,-1
 496 445 l 1,11,12
 473 446 473 446 436 446 c 256,13,14
 399 446 399 446 376 443 c 0,15,16
 347 438 347 438 317 411.5 c 128,-1,17
 287 385 287 385 267.5 345.5 c 128,-1,18
 248 306 248 306 248 264 c 2,19,-1
 248 0 l 1,20,-1
 167 0 l 1,21,-1
 167 522 l 1,0,-1
EndSplineSet
Validated: 1
EndChar
StartChar: s
Encoding: 115 115 46
Width: 600
GlyphClass: 1
Flags: W
LayerCount: 2
Fore
SplineSet
171 4 m 128,-1,1
 125 18 125 18 106 52 c 128,-1,2
 87 86 87 86 87 148 c 1,3,-1
 172 148 l 1,4,5
 174 114 174 114 187 96.5 c 128,-1,6
 200 79 200 79 228.5 71.5 c 128,-1,7
 257 64 257 64 309 64 c 0,8,9
 355 64 355 64 380 71 c 128,-1,10
 405 78 405 78 415.5 94 c 128,-1,11
 426 110 426 110 426 140 c 0,12,13
 426 167 426 167 412.5 184.5 c 128,-1,14
 399 202 399 202 367 214.5 c 128,-1,15
 335 227 335 227 275 239 c 0,16,17
 204 253 204 253 165.5 271 c 128,-1,18
 127 289 127 289 110.5 316.5 c 128,-1,19
 94 344 94 344 94 388 c 0,20,21
 94 446 94 446 112.5 477 c 128,-1,22
 131 508 131 508 174.5 521.5 c 128,-1,23
 218 535 218 535 299 535 c 0,24,25
 375 535 375 535 416 523 c 128,-1,26
 457 511 457 511 476 481.5 c 128,-1,27
 495 452 495 452 498 398 c 1,28,-1
 415 398 l 1,29,30
 410 435 410 435 385 448 c 128,-1,31
 360 461 360 461 298 461 c 0,32,33
 250 461 250 461 224 454.5 c 128,-1,34
 198 448 198 448 187 432 c 128,-1,35
 176 416 176 416 176 387 c 0,36,37
 176 370 176 370 190.5 357 c 128,-1,38
 205 344 205 344 239 331.5 c 128,-1,39
 273 319 273 319 336 303 c 0,40,41
 405 286 405 286 442 266 c 128,-1,42
 479 246 479 246 494 217 c 128,-1,43
 509 188 509 188 509 142 c 0,44,45
 509 82 509 82 490 49.5 c 128,-1,46
 471 17 471 17 427 3.5 c 128,-1,47
 383 -10 383 -10 301 -10 c 0,48,0
 217 -10 217 -10 171 4 c 128,-1,1
EndSplineSet
Validated: 1
EndChar
StartChar: t
Encoding: 116 116 47
Width: 600
GlyphClass: 1
Flags: W
LayerCount: 2
Fore
SplineSet
266 6 m 128,-1,1
 234 23 234 23 223 58 c 128,-1,2
 212 93 212 93 212 157 c 2,3,-1
 212 448 l 1,4,-1
 77 448 l 1,5,-1
 97 522 l 1,6,-1
 216 522 l 1,7,-1
 216 639 l 1,8,-1
 294 672 l 1,9,-1
 294 522 l 1,10,-1
 477 522 l 1,11,-1
 477 448 l 1,12,-1
 294 448 l 1,13,-1
 294 161 l 2,14,15
 294 126 294 126 301.5 106 c 128,-1,16
 309 86 309 86 330.5 75.5 c 128,-1,17
 352 65 352 65 395 65 c 0,18,19
 433 65 433 65 499 74 c 1,20,-1
 499 0 l 1,21,22
 411 -11 411 -11 362 -11 c 0,23,0
 298 -11 298 -11 266 6 c 128,-1,1
EndSplineSet
Validated: 1
EndChar
StartChar: u
Encoding: 117 117 48
Width: 600
GlyphClass: 1
Flags: W
LayerCount: 2
Fore
SplineSet
152.5 7.5 m 128,-1,1
 118 25 118 25 103.5 67.5 c 128,-1,2
 89 110 89 110 89 188 c 2,3,-1
 89 522 l 1,4,-1
 173 522 l 1,5,-1
 173 186 l 2,6,7
 173 139 173 139 182.5 113 c 128,-1,8
 192 87 192 87 214 76 c 128,-1,9
 236 65 236 65 276 65 c 0,10,11
 334 65 334 65 365 82 c 128,-1,12
 396 99 396 99 409.5 139 c 128,-1,13
 423 179 423 179 423 252 c 2,14,-1
 423 522 l 1,15,-1
 506 522 l 1,16,-1
 506 0 l 1,17,-1
 423 0 l 1,18,-1
 423 78 l 1,19,-1
 416 78 l 1,20,21
 393 28 393 28 358 9 c 128,-1,22
 323 -10 323 -10 251 -10 c 0,23,0
 187 -10 187 -10 152.5 7.5 c 128,-1,1
EndSplineSet
Validated: 1
EndChar
StartChar: v
Encoding: 118 118 49
Width: 600
GlyphClass: 1
Flags: W
LayerCount: 2
Fore
SplineSet
58 522 m 1,0,-1
 146 522 l 1,1,-1
 296 97 l 1,2,-1
 303 97 l 1,3,-1
 453 522 l 1,4,-1
 541 522 l 1,5,-1
 344 0 l 1,6,-1
 255 0 l 1,7,-1
 58 522 l 1,0,-1
EndSplineSet
Validated: 1
EndChar
StartChar: w
Encoding: 119 119 50
Width: 600
GlyphClass: 1
Flags: W
LayerCount: 2
Fore
SplineSet
387 0 m 1,0,-1
 303 429 l 1,1,-1
 298 429 l 1,2,-1
 213 0 l 1,3,-1
 122 0 l 1,4,-1
 10 523 l 1,5,-1
 98 523 l 1,6,-1
 165 100 l 1,7,-1
 174 100 l 1,8,-1
 257 522 l 1,9,-1
 344 522 l 1,10,-1
 426 100 l 1,11,-1
 435 100 l 1,12,-1
 502 523 l 1,13,-1
 590 523 l 1,14,-1
 478 0 l 1,15,-1
 387 0 l 1,0,-1
EndSplineSet
Validated: 1
EndChar
StartChar: x
Encoding: 120 120 51
Width: 600
GlyphClass: 1
Flags: W
LayerCount: 2
Fore
SplineSet
246 264 m 1,0,-1
 77 522 l 1,1,-1
 174 522 l 1,2,-1
 299 318 l 1,3,-1
 301 318 l 1,4,-1
 426 522 l 1,5,-1
 523 522 l 1,6,-1
 353 264 l 1,7,-1
 532 0 l 1,8,-1
 433 0 l 1,9,-1
 300 206 l 1,10,-1
 299 206 l 1,11,-1
 167 0 l 1,12,-1
 68 0 l 1,13,-1
 246 264 l 1,0,-1
EndSplineSet
Validated: 1
EndChar
StartChar: y
Encoding: 121 121 52
Width: 600
GlyphClass: 1
Flags: W
LayerCount: 2
Fore
SplineSet
279 38 m 1,0,-1
 239 38 l 1,1,-1
 65 522 l 1,2,-1
 150 522 l 1,3,-1
 299 98 l 1,4,-1
 301 98 l 1,5,-1
 445 522 l 1,6,-1
 530 522 l 1,7,-1
 272 -221 l 1,8,-1
 188 -221 l 1,9,-1
 279 38 l 1,0,-1
EndSplineSet
Validated: 1
EndChar
StartChar: z
Encoding: 122 122 53
Width: 600
GlyphClass: 1
Flags: W
LayerCount: 2
Fore
SplineSet
98 73 m 1,0,-1
 404 449 l 1,1,-1
 115 449 l 1,2,-1
 115 522 l 1,3,-1
 499 522 l 1,4,-1
 499 453 l 1,5,-1
 193 74 l 1,6,-1
 499 75 l 1,7,-1
 499 0 l 1,8,-1
 98 0 l 1,9,-1
 98 73 l 1,0,-1
EndSplineSet
Validated: 1
EndChar
StartChar: braceleft
Encoding: 123 123 78
Width: 600
GlyphClass: 1
Flags: W
LayerCount: 2
Fore
SplineSet
337 -109 m 128,-1,1
 292 -104 292 -104 272 -84.5 c 128,-1,2
 252 -65 252 -65 252 -22 c 0,3,4
 252 4 252 4 258 42 c 128,-1,5
 264 80 264 80 277 146 c 0,6,7
 286 191 286 191 286 205 c 0,8,9
 286 225 286 225 275.5 236 c 128,-1,10
 265 247 265 247 240.5 254.5 c 128,-1,11
 216 262 216 262 163 273 c 1,12,-1
 163 381 l 1,13,14
 216 391 216 391 240.5 398.5 c 128,-1,15
 265 406 265 406 275.5 417 c 128,-1,16
 286 428 286 428 286 448 c 0,17,18
 286 461 286 461 277 508 c 0,19,20
 264 574 264 574 258 612 c 128,-1,21
 252 650 252 650 252 676 c 0,22,23
 252 719 252 719 272 738.5 c 128,-1,24
 292 758 292 758 337 763 c 128,-1,25
 382 768 382 768 480 768 c 1,26,-1
 480 690 l 1,27,28
 411 690 411 690 383.5 688 c 128,-1,29
 356 686 356 686 343 677 c 128,-1,30
 330 668 330 668 330 646 c 0,31,32
 330 632 330 632 335 609 c 128,-1,33
 340 586 340 586 341 580 c 2,34,-1
 347 549 l 2,35,36
 364 469 364 469 364 430 c 0,37,38
 364 396 364 396 352 379 c 128,-1,39
 340 362 340 362 316 354 c 128,-1,40
 292 346 292 346 242 338 c 1,41,-1
 242 316 l 1,42,43
 292 308 292 308 316 300 c 128,-1,44
 340 292 340 292 352 275 c 128,-1,45
 364 258 364 258 364 224 c 0,46,47
 364 185 364 185 347 105 c 2,48,-1
 341 74 l 2,49,50
 340 68 340 68 335 45 c 128,-1,51
 330 22 330 22 330 8 c 0,52,53
 330 -14 330 -14 343 -23 c 128,-1,54
 356 -32 356 -32 383.5 -34 c 128,-1,55
 411 -36 411 -36 480 -36 c 1,56,-1
 480 -114 l 1,57,0
 382 -114 382 -114 337 -109 c 128,-1,1
EndSplineSet
Validated: 1
EndChar
StartChar: bar
Encoding: 124 124 86
Width: 600
GlyphClass: 1
Flags: W
LayerCount: 2
Fore
SplineSet
259 774 m 1,0,-1
 341 774 l 1,1,-1
 341 -98 l 1,2,-1
 259 -98 l 1,3,-1
 259 774 l 1,0,-1
EndSplineSet
Validated: 1
EndChar
StartChar: braceright
Encoding: 125 125 79
Width: 600
GlyphClass: 1
Flags: W
LayerCount: 2
Fore
SplineSet
216.5 -34 m 128,-1,1
 244 -32 244 -32 257 -23 c 128,-1,2
 270 -14 270 -14 270 8 c 0,3,4
 270 22 270 22 265 45 c 128,-1,5
 260 68 260 68 259 74 c 2,6,-1
 253 105 l 2,7,8
 236 185 236 185 236 224 c 0,9,10
 236 258 236 258 248 275 c 128,-1,11
 260 292 260 292 284 300 c 128,-1,12
 308 308 308 308 358 316 c 1,13,-1
 358 338 l 1,14,15
 308 346 308 346 284 354 c 128,-1,16
 260 362 260 362 248 379 c 128,-1,17
 236 396 236 396 236 430 c 0,18,19
 236 469 236 469 253 549 c 2,20,-1
 259 580 l 2,21,22
 260 586 260 586 265 609 c 128,-1,23
 270 632 270 632 270 646 c 0,24,25
 270 668 270 668 257 677 c 128,-1,26
 244 686 244 686 216.5 688 c 128,-1,27
 189 690 189 690 120 690 c 1,28,-1
 120 768 l 1,29,30
 218 768 218 768 263 763 c 128,-1,31
 308 758 308 758 328 738.5 c 128,-1,32
 348 719 348 719 348 676 c 0,33,34
 348 650 348 650 342 612 c 128,-1,35
 336 574 336 574 323 508 c 0,36,37
 314 461 314 461 314 448 c 0,38,39
 314 428 314 428 324.5 417 c 128,-1,40
 335 406 335 406 359.5 398.5 c 128,-1,41
 384 391 384 391 437 381 c 1,42,-1
 437 273 l 1,43,44
 384 262 384 262 359.5 254.5 c 128,-1,45
 335 247 335 247 324.5 236 c 128,-1,46
 314 225 314 225 314 205 c 0,47,48
 314 191 314 191 323 146 c 0,49,50
 336 80 336 80 342 42 c 128,-1,51
 348 4 348 4 348 -22 c 0,52,53
 348 -65 348 -65 328 -84.5 c 128,-1,54
 308 -104 308 -104 263 -109 c 128,-1,55
 218 -114 218 -114 120 -114 c 1,56,-1
 120 -36 l 1,57,0
 189 -36 189 -36 216.5 -34 c 128,-1,1
EndSplineSet
Validated: 1
EndChar
StartChar: asciitilde
Encoding: 126 126 92
Width: 600
GlyphClass: 1
Flags: W
LayerCount: 2
Fore
SplineSet
367 200 m 128,-1,1
 349 205 349 205 330.5 219 c 128,-1,2
 312 233 312 233 279 267 c 0,3,4
 236 310 236 310 217 322.5 c 128,-1,5
 198 335 198 335 178 335 c 0,6,7
 156 335 156 335 147 328.5 c 128,-1,8
 138 322 138 322 135 302 c 128,-1,9
 132 282 132 282 132 235 c 1,10,-1
 55 235 l 1,11,12
 55 314 55 314 63.5 347 c 128,-1,13
 72 380 72 380 97.5 391 c 128,-1,14
 123 402 123 402 183 402 c 0,15,16
 215 402 215 402 233.5 397 c 128,-1,17
 252 392 252 392 271 378 c 128,-1,18
 290 364 290 364 323 330 c 0,19,20
 365 287 365 287 384 274.5 c 128,-1,21
 403 262 403 262 421 262 c 0,22,23
 444 262 444 262 453.5 269 c 128,-1,24
 463 276 463 276 466 296.5 c 128,-1,25
 469 317 469 317 469 366 c 1,26,-1
 545 366 l 1,27,28
 545 286 545 286 536.5 251.5 c 128,-1,29
 528 217 528 217 502 206 c 128,-1,30
 476 195 476 195 416 195 c 0,31,0
 385 195 385 195 367 200 c 128,-1,1
EndSplineSet
Validated: 1
EndChar
StartChar: .notdef
Encoding: 65536 -1 0
Width: 600
GlyphClass: 1
Flags: W
LayerCount: 2
Fore
SplineSet
492 -240 m 1,0,-1
 112 -240 l 1,1,-1
 112 960 l 1,2,-1
 492 960 l 1,3,-1
 492 -240 l 1,0,-1
400 -157 m 1,4,-1
 400 -118 l 1,5,-1
 277 -118 l 1,6,-1
 361 -61 l 1,7,-1
 400 -61 l 1,8,-1
 400 -22 l 1,9,-1
 200 -22 l 1,10,-1
 200 -61 l 1,11,-1
 284 -61 l 1,12,-1
 200 -118 l 1,13,-1
 200 -157 l 1,14,-1
 400 -157 l 1,4,-1
400 6 m 1,15,-1
 400 142 l 1,16,-1
 200 142 l 1,17,-1
 200 6 l 1,18,-1
 400 6 l 1,15,-1
400 214 m 1,19,-1
 400 349 l 1,20,-1
 280 349 l 1,21,-1
 280 282 l 1,22,-1
 320 282 l 1,23,-1
 320 310 l 1,24,-1
 360 310 l 1,25,-1
 360 253 l 1,26,-1
 240 253 l 1,27,-1
 240 349 l 1,28,-1
 200 349 l 1,29,-1
 200 214 l 1,30,-1
 400 214 l 1,19,-1
400 376 m 1,31,-1
 400 496 l 1,32,-1
 360 496 l 1,33,-1
 360 416 l 1,34,-1
 200 416 l 1,35,-1
 200 376 l 1,36,-1
 400 376 l 1,31,-1
320 444 m 1,37,-1
 320 528 l 1,38,-1
 400 528 l 1,39,-1
 400 568 l 1,40,-1
 200 568 l 1,41,-1
 200 528 l 1,42,-1
 280 528 l 1,43,-1
 280 484 l 1,44,-1
 200 484 l 1,45,-1
 200 444 l 1,46,-1
 320 444 l 1,37,-1
400 600 m 1,47,-1
 400 641 l 1,48,-1
 320 641 l 1,49,-1
 320 725 l 1,50,-1
 200 725 l 1,51,-1
 200 600 l 1,52,-1
 400 600 l 1,47,-1
400 756 m 1,53,-1
 400 796 l 1,54,-1
 320 796 l 1,55,-1
 320 840 l 1,56,-1
 400 840 l 1,57,-1
 400 880 l 1,58,-1
 202 880 l 1,59,-1
 202 840 l 1,60,-1
 280 840 l 1,61,-1
 280 796 l 1,62,-1
 200 796 l 1,63,-1
 200 756 l 1,64,-1
 400 756 l 1,53,-1
240 102 m 1,65,-1
 360 102 l 1,66,-1
 360 46 l 1,67,-1
 240 46 l 1,68,-1
 240 102 l 1,65,-1
240 684 m 1,69,-1
 280 684 l 1,70,-1
 280 641 l 1,71,-1
 240 641 l 1,72,-1
 240 684 l 1,69,-1
EndSplineSet
Validated: 1
EndChar
